<?xml version="1.0" encoding="UTF-8"?>
<svg version="1.1" xmlns="http://www.w3.org/2000/svg" width="500" height="500">
<path d="M0 0 C4.98383292 0.70386706 7.4071337 2.58219254 10.4296875 6.484375 C11.0484375 7.226875 11.6671875 7.969375 12.3046875 8.734375 C14.19730734 13.36077906 15.22296455 18.95527127 13.703125 23.80078125 C13.27723871 27.98055097 15.31249493 30.83392951 17.3046875 34.421875 C19.87993127 39.12850654 21.90136391 43.03923352 22.4296875 48.484375 C23.35523438 48.34 24.28078125 48.195625 25.234375 48.046875 C70.25796638 41.59691444 115.59389765 52.34648593 152.1953125 79.5390625 C153.69400641 80.70417615 155.18418047 81.88045631 156.66015625 83.07421875 C158.58585978 84.64969765 158.58585978 84.64969765 161.4296875 86.484375 C161.4296875 87.144375 161.4296875 87.804375 161.4296875 88.484375 C162.01105469 88.74992187 162.59242188 89.01546875 163.19140625 89.2890625 C170.16399965 93.01264641 175.44685612 99.49249425 180.4296875 105.484375 C181.61884766 106.8765625 181.61884766 106.8765625 182.83203125 108.296875 C184.05599609 109.7509375 184.05599609 109.7509375 185.3046875 111.234375 C186.44550781 112.58789062 186.44550781 112.58789062 187.609375 113.96875 C189.27998343 116.27748783 190.02715984 117.70563567 190.4296875 120.484375 C191.0896875 120.484375 191.7496875 120.484375 192.4296875 120.484375 C193.77616965 122.43424761 195.03155784 124.44736907 196.2421875 126.484375 C196.90863281 127.598125 197.57507813 128.711875 198.26171875 129.859375 C198.60952393 130.44734863 198.9573291 131.03532227 199.31567383 131.64111328 C200.48208034 133.57106489 201.70531201 135.45795584 202.9296875 137.3515625 C205.59099776 141.59534254 207.63134559 146.01832528 209.6171875 150.609375 C209.95943359 151.38152344 210.30167969 152.15367187 210.65429688 152.94921875 C213.82571661 160.17882414 215.73011266 166.25422004 215.78369141 174.17333984 C215.7968338 175.02633667 215.8099762 175.8793335 215.82351685 176.75817871 C215.86280625 179.570561 215.88627609 182.38272987 215.90625 185.1953125 C215.91440105 186.16277027 215.92255211 187.13022804 215.93095016 188.12700272 C215.97261031 193.25474427 216.00123214 198.38237999 216.02001953 203.51025391 C216.04205482 208.76678103 216.11075733 214.02159283 216.19036293 219.27751732 C216.24306406 223.3529032 216.25943584 227.42789311 216.26658249 231.50358963 C216.27623081 233.43866089 216.29921685 235.37371955 216.33665848 237.30845261 C216.58038726 250.74522339 214.54723133 260.03375891 207.4296875 271.484375 C206.50900986 272.99830338 206.50900986 272.99830338 205.56973267 274.54281616 C203.00006758 278.68393924 203.00006758 278.68393924 201.4296875 280.484375 C200.7696875 280.484375 200.1096875 280.484375 199.4296875 280.484375 C199.2440625 281.185625 199.0584375 281.886875 198.8671875 282.609375 C197.1594057 286.02493861 195.14863212 287.65030559 192.21875 290.01953125 C190.25766159 291.57584243 190.25766159 291.57584243 187.9921875 293.921875 C175.63443907 306.27962343 161.53499266 313.24708166 145.4296875 319.484375 C144.40359375 319.88527344 143.3775 320.28617187 142.3203125 320.69921875 C127.36075337 326.08206589 111.38947178 328.94882156 95.58830261 330.28425598 C93.45405197 330.48211624 91.33228163 330.73607568 89.20483398 330.99633789 C84.78529793 331.48987697 80.42848423 331.6454349 75.984375 331.65234375 C74.82495895 331.65733635 74.82495895 331.65733635 73.64212036 331.66242981 C72.0169534 331.66745416 70.39177628 331.66983954 68.76660156 331.66967773 C66.33119882 331.67185134 63.89625971 331.69001999 61.4609375 331.70898438 C48.41639062 331.75678906 35.85268286 330.5303238 23.1171875 327.546875 C22.35647949 327.37212646 21.59577148 327.19737793 20.81201172 327.01733398 C10.90652227 324.70661765 1.76857293 321.54406231 -7.5703125 317.484375 C-7.73104248 318.03472412 -7.89177246 318.58507324 -8.05737305 319.15209961 C-9.84899215 324.9311 -12.24339732 329.88917992 -15.3828125 335.046875 C-15.82496094 335.78413818 -16.26710938 336.52140137 -16.72265625 337.28100586 C-19.73525311 342.24969861 -22.7971432 347.05090107 -26.5703125 351.484375 C-27.2303125 351.484375 -27.8903125 351.484375 -28.5703125 351.484375 C-28.89515625 352.29648437 -28.89515625 352.29648437 -29.2265625 353.125 C-31.03611063 356.30222986 -33.48276118 358.69323896 -36.0703125 361.234375 C-36.60422607 361.76224609 -37.13813965 362.29011719 -37.68823242 362.83398438 C-44.40956521 369.39060308 -51.34178967 374.93307955 -59.5703125 379.484375 C-60.71628906 380.13277344 -61.86226562 380.78117187 -63.04296875 381.44921875 C-74.15824881 387.61103374 -85.54280927 391.70467858 -97.7578125 395.171875 C-98.8257605 395.47581177 -98.8257605 395.47581177 -99.9152832 395.78588867 C-109.25732944 398.34595325 -118.38296679 399.79615746 -128.07421875 399.8203125 C-129.03698227 399.8269693 -129.99974579 399.8336261 -130.99168396 399.84048462 C-133.01600255 399.85053493 -135.04035376 399.85530403 -137.06469727 399.85498047 C-140.10165501 399.85933037 -143.13712854 399.89566887 -146.17382812 399.93359375 C-162.05827781 400.02424872 -177.02237657 398.27909178 -191.5703125 391.484375 C-192.86553666 390.9119706 -194.16114589 390.34043714 -195.45703125 389.76953125 C-207.15083046 384.53169753 -218.57693473 378.79894484 -227.5703125 369.484375 C-229.1451757 368.07899212 -230.72858794 366.68313185 -232.3203125 365.296875 C-237.47235813 360.68070336 -242.09241933 355.75199042 -246.5703125 350.484375 C-247.16457031 349.78957031 -247.75882813 349.09476562 -248.37109375 348.37890625 C-265.10386095 327.87645816 -278.60061245 298.97677609 -278.80859375 272.34765625 C-278.82070137 270.85748238 -278.82070137 270.85748238 -278.83305359 269.33720398 C-278.8468719 267.22994719 -278.85760411 265.12266824 -278.86547852 263.01538086 C-278.87690952 260.89291673 -278.89721722 258.77047928 -278.92700195 256.64819336 C-279.42001313 221.462619 -267.24105263 191.13483167 -245.3046875 163.6640625 C-244.06317414 162.10378219 -242.84714417 160.52309027 -241.6484375 158.9296875 C-241.02453125 158.10210937 -240.400625 157.27453125 -239.7578125 156.421875 C-239.19449219 155.66777344 -238.63117188 154.91367188 -238.05078125 154.13671875 C-237.56222656 153.59144531 -237.07367188 153.04617187 -236.5703125 152.484375 C-235.9103125 152.484375 -235.2503125 152.484375 -234.5703125 152.484375 C-233.9103125 151.164375 -233.2503125 149.844375 -232.5703125 148.484375 C-231.9103125 148.484375 -231.2503125 148.484375 -230.5703125 148.484375 C-230.3228125 147.906875 -230.0753125 147.329375 -229.8203125 146.734375 C-228.38731262 144.15497521 -226.78606574 142.42315908 -224.5703125 140.484375 C-223.9103125 140.484375 -223.2503125 140.484375 -222.5703125 140.484375 C-222.34859375 139.92878906 -222.126875 139.37320313 -221.8984375 138.80078125 C-216.26918861 128.98270893 -203.48008897 121.28496157 -194.5703125 114.484375 C-193.57128906 113.71222656 -192.57226562 112.94007813 -191.54296875 112.14453125 C-184.39671161 106.68651741 -177.00173288 101.68601222 -169.48925781 96.75488281 C-167.59584157 95.50127745 -165.71798989 94.22737549 -163.84375 92.9453125 C-157.47874154 88.60648584 -151.0600262 84.53230132 -144.3203125 80.796875 C-143.64508545 80.42135498 -142.9698584 80.04583496 -142.27416992 79.65893555 C-141.61650635 79.29324463 -140.95884277 78.92755371 -140.28125 78.55078125 C-129.89703379 72.77327548 -121.63835415 66.13312116 -113.10205078 57.93945312 C-110.64400749 55.60442953 -108.08633727 53.39262572 -105.515625 51.18359375 C-102.17100395 48.26208741 -98.92815694 45.22640104 -95.671875 42.20703125 C-93.5703125 40.484375 -93.5703125 40.484375 -91.5703125 40.484375 C-91.1990625 39.618125 -91.1990625 39.618125 -90.8203125 38.734375 C-89.38731262 36.15497521 -87.78606574 34.42315908 -85.5703125 32.484375 C-84.9103125 32.484375 -84.2503125 32.484375 -83.5703125 32.484375 C-83.35117188 31.94167969 -83.13203125 31.39898437 -82.90625 30.83984375 C-81.12560263 27.70028127 -78.7349543 25.31980863 -76.1953125 22.796875 C-75.71320313 22.29865234 -75.23109375 21.80042969 -74.734375 21.28710938 C-72.17707258 18.72633236 -70.25984934 16.86032307 -66.5703125 16.484375 C-66.5703125 15.824375 -66.5703125 15.164375 -66.5703125 14.484375 C-51.52224532 5.5766111 -35.19369569 -0.7672618 -17.390625 3.19140625 C-12.1348104 3.73737037 -6.39230919 -0.13289624 0 0 Z " fill="#F3D416" transform="translate(284.5703125,49.515625)"/>
<path d="M0 0 C1.92570353 1.5754789 1.92570353 1.5754789 4.76953125 3.41015625 C4.76953125 4.07015625 4.76953125 4.73015625 4.76953125 5.41015625 C5.35089844 5.67570312 5.93226563 5.94125 6.53125 6.21484375 C13.5038434 9.93842766 18.78669987 16.4182755 23.76953125 22.41015625 C24.56230469 23.33828125 25.35507812 24.26640625 26.171875 25.22265625 C27.39583984 26.67671875 27.39583984 26.67671875 28.64453125 28.16015625 C29.40507812 29.0625 30.165625 29.96484375 30.94921875 30.89453125 C32.61982718 33.20326908 33.36700359 34.63141692 33.76953125 37.41015625 C34.42953125 37.41015625 35.08953125 37.41015625 35.76953125 37.41015625 C37.1160134 39.36002886 38.37140159 41.37315032 39.58203125 43.41015625 C40.24847656 44.52390625 40.91492188 45.63765625 41.6015625 46.78515625 C41.94936768 47.37312988 42.29717285 47.96110352 42.65551758 48.56689453 C43.82192409 50.49684614 45.04515576 52.38373709 46.26953125 54.27734375 C48.93084151 58.52112379 50.97118934 62.94410653 52.95703125 67.53515625 C53.29927734 68.30730469 53.64152344 69.07945312 53.99414062 69.875 C57.16556036 77.10460539 59.06995641 83.18000129 59.12353516 91.09912109 C59.13667755 91.95211792 59.14981995 92.80511475 59.1633606 93.68395996 C59.20265 96.49634225 59.22611984 99.30851112 59.24609375 102.12109375 C59.2542448 103.08855152 59.26239586 104.05600929 59.27079391 105.05278397 C59.31245406 110.18052552 59.34107589 115.30816124 59.35986328 120.43603516 C59.38189857 125.69256228 59.45060108 130.94737408 59.53020668 136.20329857 C59.58290781 140.27868445 59.59927959 144.35367436 59.60642624 148.42937088 C59.61607456 150.36444214 59.6390606 152.2995008 59.67650223 154.23423386 C59.92023101 167.67100464 57.88707508 176.95954016 50.76953125 188.41015625 C50.15574615 189.41944183 49.54196106 190.42872742 48.90957642 191.46859741 C46.33991133 195.60972049 46.33991133 195.60972049 44.76953125 197.41015625 C44.10953125 197.41015625 43.44953125 197.41015625 42.76953125 197.41015625 C42.58390625 198.11140625 42.39828125 198.81265625 42.20703125 199.53515625 C40.49924945 202.95071986 38.48847587 204.57608684 35.55859375 206.9453125 C33.59750534 208.50162368 33.59750534 208.50162368 31.33203125 210.84765625 C18.97428282 223.20540468 4.87483641 230.17286291 -11.23046875 236.41015625 C-12.2565625 236.81105469 -13.28265625 237.21195312 -14.33984375 237.625 C-29.29940288 243.00784714 -45.27068447 245.87460281 -61.07185364 247.21003723 C-63.20610428 247.40789749 -65.32787462 247.66185693 -67.45532227 247.92211914 C-71.87485832 248.41565822 -76.23167202 248.57121615 -80.67578125 248.578125 C-81.8351973 248.5831176 -81.8351973 248.5831176 -83.01803589 248.58821106 C-84.64320285 248.59323541 -86.26837997 248.59562079 -87.89355469 248.59545898 C-90.32895743 248.59763259 -92.76389654 248.61580124 -95.19921875 248.63476562 C-108.24367229 248.68256996 -120.80761131 247.45641928 -133.54296875 244.47265625 C-134.68294312 244.21053345 -134.68294312 244.21053345 -135.84594727 243.94311523 C-145.51933776 241.68485286 -154.25661796 238.72647612 -163.23046875 234.41015625 C-163.45887676 229.26771309 -162.81438879 225.47841877 -161.04296875 220.66015625 C-156.38338538 207.38882935 -152.98909706 194.21150067 -151.62890625 180.19921875 C-151.29233564 176.99849826 -150.80903004 173.93471825 -150.16796875 170.78515625 C-149.06228178 165.15306322 -148.76908844 159.51214937 -148.4765625 153.79296875 C-148.23046875 150.41015625 -148.23046875 150.41015625 -147.72317505 147.99571228 C-147.24360158 145.47907288 -147.10361967 143.21602816 -147.10107422 140.65844727 C-147.09792206 139.74301651 -147.0947699 138.82758575 -147.09152222 137.88441467 C-147.09354645 136.90419846 -147.09557068 135.92398224 -147.09765625 134.9140625 C-147.09669952 133.88893051 -147.0957428 132.86379852 -147.09475708 131.80760193 C-147.09407715 129.63646381 -147.09591838 127.46532365 -147.10009766 125.29418945 C-147.10539908 122.01573954 -147.10017203 118.73742975 -147.09375 115.45898438 C-147.09093679 105.94897352 -147.19608786 96.54101556 -148.00341797 87.06030273 C-148.47893311 79.41575776 -148.37759972 71.74896942 -148.36083984 64.09228516 C-148.35540247 61.12397331 -148.36085641 58.15580772 -148.3671875 55.1875 C-148.36652797 53.29817675 -148.36524942 51.40885359 -148.36328125 49.51953125 C-148.36530548 48.63320007 -148.36732971 47.7468689 -148.36941528 46.8336792 C-148.34547703 40.64017281 -148.34547703 40.64017281 -147.23046875 38.41015625 C-146.93367994 36.68525496 -146.66810921 34.95493735 -146.41796875 33.22265625 C-145.44832348 27.18212534 -143.93634814 21.39329158 -142.3125 15.5 C-141.09012064 10.9786423 -140.05500941 6.42006157 -139.04296875 1.84765625 C-138.87619629 1.09790527 -138.70942383 0.3481543 -138.53759766 -0.42431641 C-136.84793064 -8.13982571 -135.99413791 -15.57261957 -135.66796875 -23.46484375 C-135.62478516 -24.439375 -135.58160156 -25.41390625 -135.53710938 -26.41796875 C-135.43164601 -28.80847177 -135.329527 -31.19906819 -135.23046875 -33.58984375 C-92.55893503 -49.5916689 -33.42811164 -27.0365033 0 0 Z " fill="#578A14" transform="translate(441.23046875,132.58984375)"/>
<path d="M0 0 C1.62418745 -0.08090971 3.24951745 -0.13914995 4.875 -0.1875 C5.77992188 -0.22230469 6.68484375 -0.25710937 7.6171875 -0.29296875 C8.40351563 -0.19628906 9.18984375 -0.09960938 10 0 C12.84052632 4.26078948 12.5215071 7.99655504 12 13 C11.22085745 15.54910223 10.24021525 17.62292077 9 20 C8.34 20 7.68 20 7 20 C6.75121094 20.70769531 6.50242188 21.41539063 6.24609375 22.14453125 C4.85553817 25.33103949 3.08707337 27.86365372 1.0625 30.6875 C-2.10485358 35.31320343 -4.06733872 39.25041031 -5.13671875 44.74609375 C-6.37346564 47.97506639 -8.47215495 49.67525297 -11 52 C-11.78117188 52.75539062 -12.56234375 53.51078125 -13.3671875 54.2890625 C-23.50705244 63.73398343 -34.69958353 71.54132691 -46.23779297 79.16894531 C-63.41373941 90.53662215 -79.54698639 102.85737605 -94.67578125 116.85546875 C-96.66979194 118.69532063 -98.69255178 120.48208607 -100.75 122.25 C-109.83838619 130.15783294 -118.60488082 138.47516236 -127.03515625 147.078125 C-128.90512942 148.90720412 -130.84654727 150.5386169 -132.875 152.1875 C-142.53547423 160.52014012 -149.79046486 172.00780163 -156 183 C-156.90878906 184.5778125 -156.90878906 184.5778125 -157.8359375 186.1875 C-170.07960269 208.85699363 -171.71443603 232.16817799 -166 257 C-165.4628967 259.55913924 -164.94239444 262.12181194 -164.4375 264.6875 C-164.31068848 265.33009766 -164.18387695 265.97269531 -164.05322266 266.63476562 C-162.82659119 273.22169641 -162.29953052 279.87081481 -161.90991211 286.55541992 C-161.45487597 292.71412938 -159.84033143 297.52381452 -157 303 C-151.64878132 303.61744831 -148.63759974 303.01751581 -143.9375 300.375 C-138.11801387 297.23747402 -132.34673544 295.62690931 -125.9375 294.0625 C-99.36384758 287.48801984 -79.40888918 278.50875344 -63.44140625 255.46484375 C-58.84383765 248.86325359 -53.79898718 242.64373865 -48 237.0625 C-17.42355002 207.15339318 -17.19731945 165.1102464 -13.9296875 125.2421875 C-9.98552814 77.14551307 -9.98552814 77.14551307 -1.10546875 62.828125 C0.18324732 60.81539687 0.18324732 60.81539687 1.3125 57.625 C3.35501322 53.23737901 6.03437764 49.66106348 8.93359375 45.80078125 C11.37573885 42.49072826 13.58916518 39.06588459 15.7734375 35.58203125 C16.17820313 35.05996094 16.58296875 34.53789063 17 34 C17.66 34 18.32 34 19 34 C19.15855469 33.41734375 19.31710937 32.8346875 19.48046875 32.234375 C25.33398783 11.66620852 25.33398783 11.66620852 32 7 C35.06071915 6.60555169 36.5293509 6.70573831 39.16796875 8.35546875 C39.83441406 8.96003906 40.50085938 9.56460938 41.1875 10.1875 C42.19876953 11.07501953 42.19876953 11.07501953 43.23046875 11.98046875 C47.38059647 16.71692798 47.36174277 21.58141926 47.2578125 27.609375 C46.62576571 35.921748 44.50511812 43.91958698 41.72729492 51.75268555 C38.64481747 61.27742704 37.66542157 71.64111553 36 81.5 C35.48085572 84.57320593 34.96017876 87.64614319 34.4375 90.71875 C34.31270264 91.45536865 34.18790527 92.1919873 34.05932617 92.95092773 C33.40640783 96.76748887 32.69120041 100.55899848 31.875 104.34375 C29.65785449 115.3198892 29.84158571 126.49907066 29.86962891 137.64624023 C29.87501217 140.19325653 29.86964083 142.74009825 29.86328125 145.28710938 C29.86394179 146.93489622 29.86522244 148.58268295 29.8671875 150.23046875 C29.86415115 151.35112984 29.86415115 151.35112984 29.86105347 152.49443054 C29.88066156 156.98177053 30.2350958 161.3284041 30.77316284 165.78144836 C31.13640438 169.33408551 31.14294607 172.86927389 31.1328125 176.4375 C31.13376923 177.20247803 31.13472595 177.96745605 31.13571167 178.75561523 C31.13638645 180.35888757 31.13458169 181.96216274 31.13037109 183.56542969 C31.12501279 185.99420413 31.13034017 188.42279369 31.13671875 190.8515625 C31.13958142 198.29221211 31.07611269 205.62094153 30 213 C29.34 213 28.68 213 28 213 C28.05542969 214.22074219 28.11085938 215.44148437 28.16796875 216.69921875 C28.16186979 222.93845638 26.74727734 228.7681935 25.3125 234.8125 C25.06822266 235.91142578 24.82394531 237.01035156 24.57226562 238.14257812 C22.12819986 248.64277966 18.07127985 258.17396108 13.1875 267.75 C12.87619141 268.36359375 12.56488281 268.9771875 12.24414062 269.609375 C11.49994063 271.07487652 10.75058778 272.53775983 10 274 C9.34 274 8.68 274 8 274 C7.73960937 274.721875 7.47921875 275.44375 7.2109375 276.1875 C-2.24757825 298.1556656 -26.78167274 315.65503324 -48.0625 324.6875 C-50.04024787 325.46196632 -52.01941547 326.23281706 -54 327 C-54.96808594 327.42023438 -55.93617188 327.84046875 -56.93359375 328.2734375 C-88.70459656 341.62940046 -125.48476652 338.25188525 -156.875 325.625 C-163.7377764 322.765834 -169.95345891 319.35547594 -176 315 C-176.74121094 314.48050781 -177.48242188 313.96101563 -178.24609375 313.42578125 C-199.50452788 297.77563278 -213.25688755 275.29593067 -217.62890625 249.25390625 C-218.22349538 243.72720706 -218.18418712 238.17738546 -218.1875 232.625 C-218.19974609 231.5525 -218.21199219 230.48 -218.22460938 229.375 C-218.27686816 200.73718355 -203.52690844 173.74844337 -186 152 C-185.36964844 151.18402344 -184.73929688 150.36804688 -184.08984375 149.52734375 C-175.12431915 138.1486686 -164.77417348 127.8695575 -153.40234375 118.90234375 C-151.23686718 117.187568 -149.17713428 115.40984749 -147.125 113.5625 C-137.2145036 104.82798339 -126.36959955 97.34385138 -115.375 90.0625 C-114.72413422 89.62934479 -114.07326843 89.19618958 -113.40267944 88.74990845 C-102.83775963 81.72596137 -92.06762793 75.20315592 -81 69 C-72.75847676 64.33949127 -66.23748188 58.72078473 -59.43359375 52.21875 C-56.42194267 49.35612387 -53.30529439 46.72279413 -50.0625 44.125 C-46.35852087 41.15748455 -42.96589179 38.0874415 -39.671875 34.67578125 C-37.87429075 32.87399703 -35.99339698 31.22022744 -34.0625 29.5625 C-28.50610536 24.7569695 -23.35342993 19.67688141 -18.6875 14 C-14.52791303 9.16951191 -9.52273951 5.1800154 -4 2 C-2.68 2 -1.36 2 0 2 C0 1.34 0 0.68 0 0 Z " fill="#FA8E00" transform="translate(237,69)"/>
<path d="M0 0 C1.18078125 0.57105469 2.3615625 1.14210937 3.578125 1.73046875 C12.11757174 5.99583304 19.50533643 11.08085695 27 17 C29.21739943 18.6123416 31.44001358 20.21635115 33.671875 21.80859375 C34.11015625 22.20175781 34.5484375 22.59492188 35 23 C35 23.66 35 24.32 35 25 C35.57234375 25.2475 36.1446875 25.495 36.734375 25.75 C39.35010611 27.19316199 41.14773456 28.88216222 43.25 31 C43.95640625 31.70125 44.6628125 32.4025 45.390625 33.125 C47 35 47 35 47 37 C47.99 37.33 48.98 37.66 50 38 C53 41.44444444 53 41.44444444 53 44 C53.66 44 54.32 44 55 44 C56.64546067 45.98495162 58.14439663 47.95844075 59.625 50.0625 C60.0679541 50.68793701 60.5109082 51.31337402 60.96728516 51.95776367 C65.60254406 58.64787094 69.43558323 65.6880596 73 73 C73.36262939 73.68473389 73.72525879 74.36946777 74.09887695 75.07495117 C77.06911787 81.03059065 77.59620031 86.0846405 77.4375 92.6875 C77.4257373 93.64849609 77.41397461 94.60949219 77.40185547 95.59960938 C77.12733593 107.04880205 75.26685936 118.75795781 69.375 128.75 C67.51506233 131.68825387 67.51506233 131.68825387 67 135 C72.94 137.475 72.94 137.475 79 140 C78.10200383 142.48744939 77.18316241 144.9632737 76.25 147.4375 C75.99734375 148.14455078 75.7446875 148.85160156 75.484375 149.58007812 C73.51666446 154.72072191 73.51666446 154.72072191 71.12109375 156.015625 C64.80678008 155.96911072 59.09243936 154.7692798 53.6875 151.5 C50.37747893 149.87173111 49.25718616 149.92275433 45.64453125 151.0078125 C43.18392631 152.09965649 40.76418046 153.21108442 38.34765625 154.390625 C23.77680172 161.39551656 6.61089141 158.13062087 -8.08959961 152.99926758 C-24.66180596 146.89873966 -40.53242561 137.69738052 -52 124 C-52 123.34 -52 122.68 -52 122 C-52.66 122 -53.32 122 -54 122 C-55.69140625 119.91796875 -55.69140625 119.91796875 -57.5625 117.1875 C-58.18253906 116.29417969 -58.80257812 115.40085937 -59.44140625 114.48046875 C-61 112 -61 112 -62 109 C-63.95565963 108.10397149 -63.95565963 108.10397149 -66.375 107.5703125 C-67.27863281 107.33183594 -68.18226563 107.09335938 -69.11328125 106.84765625 C-70.06589844 106.60917969 -71.01851563 106.37070313 -72 106.125 C-81.89373989 103.64810568 -90.5935262 100.22131196 -98 93 C-99 90.875 -99 90.875 -99 89 C-97 86 -97 86 -94.5 85.4375 C-89.23326098 86.2839402 -85.42405507 89.13281781 -81 92 C-77.52859715 94.10367013 -74.03684177 96.03667992 -70.29296875 97.61328125 C-69.20628906 98.07089844 -68.11960937 98.52851563 -67 99 C-67.33773438 98.03320312 -67.67546875 97.06640625 -68.0234375 96.0703125 C-68.47429124 94.75532243 -68.92479295 93.44021162 -69.375 92.125 C-69.70757812 91.17753906 -69.70757812 91.17753906 -70.046875 90.2109375 C-76.61763134 70.88518356 -76.97790944 47.55902698 -68.12890625 28.9765625 C-65.00040466 22.74558061 -61.53434245 17.30715212 -57 12 C-57 11.67 -57 11.34 -57 11 C-58.08539063 10.90203125 -59.17078125 10.8040625 -60.2890625 10.703125 C-61.73446565 10.55295324 -63.17977353 10.40186268 -64.625 10.25 C-65.33785156 10.188125 -66.05070312 10.12625 -66.78515625 10.0625 C-71.79128392 9.51136668 -74.98011431 8.24064631 -79 5 C-79.33 4.34 -79.66 3.68 -80 3 C-76.41005011 1.80335004 -73.11285485 1.80949908 -69.375 1.8125 C-68.65513916 1.81113037 -67.93527832 1.80976074 -67.19360352 1.80834961 C-62.53083945 1.85091513 -58.38016119 2.43346883 -53.859375 3.59765625 C-47.09408244 5.0615746 -41.52881085 1.45055881 -35.76953125 -1.625 C-25.22693618 -6.85912336 -10.20473809 -5.11678252 0 0 Z " fill="#7BA519" transform="translate(405,127)"/>
<path d="M0 0 C4.98383292 0.70386706 7.4071337 2.58219254 10.4296875 6.484375 C11.0484375 7.226875 11.6671875 7.969375 12.3046875 8.734375 C14.19834147 13.36330692 15.22130611 18.95630268 13.703125 23.8046875 C13.27820664 27.96888738 15.31023659 30.79070866 17.3046875 34.359375 C25.45489058 49.07424677 22.76576143 67.48667812 18.93603516 83.38232422 C18.3363335 85.87192465 17.76449065 88.36742243 17.19140625 90.86328125 C13.86636068 105.18504327 13.86636068 105.18504327 12.3125 109.80859375 C11.4720888 112.35585777 11.08302806 114.57081059 10.8671875 117.234375 C10.5296875 121.284375 10.5296875 121.284375 9.4296875 123.484375 C9.33001961 126.52857079 9.2899221 129.54934985 9.296875 132.59375 C9.29591827 133.51214661 9.29496155 134.43054321 9.29397583 135.37677002 C9.29329384 137.33044503 9.29514943 139.28412229 9.29931641 141.23779297 C9.30459133 144.18071841 9.29941057 147.12348605 9.29296875 150.06640625 C9.2798666 161.71445627 9.2798666 161.71445627 9.9296875 173.33984375 C10.71934663 182.80021439 10.578641 192.28736378 10.56005859 201.77368164 C10.55464763 205.07117196 10.56005883 208.36852916 10.56640625 211.66601562 C10.56574628 213.7734378 10.5644668 215.88085989 10.5625 217.98828125 C10.56452423 218.96849747 10.56654846 219.94871368 10.56863403 220.95863342 C10.56548187 221.87406418 10.56232971 222.78949493 10.55908203 223.73266602 C10.55788864 224.93174339 10.55788864 224.93174339 10.55667114 226.15504456 C10.41917658 228.67718261 9.96373604 231.01832872 9.4296875 233.484375 C9.25100912 235.04694786 9.09649414 236.61245169 8.96484375 238.1796875 C8.88806396 239.05512207 8.81128418 239.93055664 8.73217773 240.83251953 C8.65298096 241.74888184 8.57378418 242.66524414 8.4921875 243.609375 C7.89923786 250.19083501 7.1837465 256.63792897 5.8515625 263.1171875 C5.41129946 265.58755235 5.25421058 267.97989757 5.1171875 270.484375 C4.09391738 283.0508501 -0.41878848 295.42425037 -4.52734375 307.26953125 C-5.37883102 309.89415306 -5.98311897 312.33832151 -6.4453125 315.046875 C-8.56699691 325.57598175 -15.66493937 335.74611404 -21.5703125 344.484375 C-22.05886719 345.22171875 -22.54742187 345.9590625 -23.05078125 346.71875 C-24.1634576 348.35024025 -25.35790661 349.92556743 -26.5703125 351.484375 C-27.2303125 351.484375 -27.8903125 351.484375 -28.5703125 351.484375 C-28.89515625 352.29648437 -28.89515625 352.29648437 -29.2265625 353.125 C-31.03611063 356.30222986 -33.48276118 358.69323896 -36.0703125 361.234375 C-36.60422607 361.76224609 -37.13813965 362.29011719 -37.68823242 362.83398438 C-44.40956521 369.39060308 -51.34178967 374.93307955 -59.5703125 379.484375 C-60.71628906 380.13277344 -61.86226562 380.78117187 -63.04296875 381.44921875 C-74.15824881 387.61103374 -85.54280927 391.70467858 -97.7578125 395.171875 C-98.8257605 395.47581177 -98.8257605 395.47581177 -99.9152832 395.78588867 C-109.25732944 398.34595325 -118.38296679 399.79615746 -128.07421875 399.8203125 C-129.03698227 399.8269693 -129.99974579 399.8336261 -130.99168396 399.84048462 C-133.01600255 399.85053493 -135.04035376 399.85530403 -137.06469727 399.85498047 C-140.10165501 399.85933037 -143.13712854 399.89566887 -146.17382812 399.93359375 C-162.05827781 400.02424872 -177.02237657 398.27909178 -191.5703125 391.484375 C-192.86553666 390.9119706 -194.16114589 390.34043714 -195.45703125 389.76953125 C-207.15083046 384.53169753 -218.57693473 378.79894484 -227.5703125 369.484375 C-229.1451757 368.07899212 -230.72858794 366.68313185 -232.3203125 365.296875 C-237.47235813 360.68070336 -242.09241933 355.75199042 -246.5703125 350.484375 C-247.16457031 349.78957031 -247.75882813 349.09476562 -248.37109375 348.37890625 C-265.10386095 327.87645816 -278.60061245 298.97677609 -278.80859375 272.34765625 C-278.82070137 270.85748238 -278.82070137 270.85748238 -278.83305359 269.33720398 C-278.8468719 267.22994719 -278.85760411 265.12266824 -278.86547852 263.01538086 C-278.87690952 260.89291673 -278.89721722 258.77047928 -278.92700195 256.64819336 C-279.42001313 221.462619 -267.24105263 191.13483167 -245.3046875 163.6640625 C-244.06317414 162.10378219 -242.84714417 160.52309027 -241.6484375 158.9296875 C-241.02453125 158.10210937 -240.400625 157.27453125 -239.7578125 156.421875 C-239.19449219 155.66777344 -238.63117188 154.91367188 -238.05078125 154.13671875 C-237.56222656 153.59144531 -237.07367188 153.04617187 -236.5703125 152.484375 C-235.9103125 152.484375 -235.2503125 152.484375 -234.5703125 152.484375 C-233.9103125 151.164375 -233.2503125 149.844375 -232.5703125 148.484375 C-231.9103125 148.484375 -231.2503125 148.484375 -230.5703125 148.484375 C-230.3228125 147.906875 -230.0753125 147.329375 -229.8203125 146.734375 C-228.38731262 144.15497521 -226.78606574 142.42315908 -224.5703125 140.484375 C-223.9103125 140.484375 -223.2503125 140.484375 -222.5703125 140.484375 C-222.34859375 139.92878906 -222.126875 139.37320313 -221.8984375 138.80078125 C-216.26918861 128.98270893 -203.48008897 121.28496157 -194.5703125 114.484375 C-193.57128906 113.71222656 -192.57226562 112.94007813 -191.54296875 112.14453125 C-184.39671161 106.68651741 -177.00173288 101.68601222 -169.48925781 96.75488281 C-167.59584157 95.50127745 -165.71798989 94.22737549 -163.84375 92.9453125 C-157.47874154 88.60648584 -151.0600262 84.53230132 -144.3203125 80.796875 C-143.64508545 80.42135498 -142.9698584 80.04583496 -142.27416992 79.65893555 C-141.61650635 79.29324463 -140.95884277 78.92755371 -140.28125 78.55078125 C-129.89703379 72.77327548 -121.63835415 66.13312116 -113.10205078 57.93945312 C-110.64400749 55.60442953 -108.08633727 53.39262572 -105.515625 51.18359375 C-102.17100395 48.26208741 -98.92815694 45.22640104 -95.671875 42.20703125 C-93.5703125 40.484375 -93.5703125 40.484375 -91.5703125 40.484375 C-91.1990625 39.618125 -91.1990625 39.618125 -90.8203125 38.734375 C-89.38731262 36.15497521 -87.78606574 34.42315908 -85.5703125 32.484375 C-84.9103125 32.484375 -84.2503125 32.484375 -83.5703125 32.484375 C-83.35117188 31.94167969 -83.13203125 31.39898437 -82.90625 30.83984375 C-81.12560263 27.70028127 -78.7349543 25.31980863 -76.1953125 22.796875 C-75.71320313 22.29865234 -75.23109375 21.80042969 -74.734375 21.28710938 C-72.17707258 18.72633236 -70.25984934 16.86032307 -66.5703125 16.484375 C-66.5703125 15.824375 -66.5703125 15.164375 -66.5703125 14.484375 C-51.52224532 5.5766111 -35.19369569 -0.7672618 -17.390625 3.19140625 C-12.1348104 3.73737037 -6.39230919 -0.13289624 0 0 Z M-60.5703125 18.484375 C-61.11059082 18.83991455 -61.65086914 19.1954541 -62.20751953 19.56176758 C-69.44149684 24.63576971 -75.40701645 31.13925002 -81.5703125 37.421875 C-95.42445325 51.50117491 -95.42445325 51.50117491 -102.5703125 57.484375 C-103.77042473 58.51588847 -104.96965329 59.548431 -106.16796875 60.58203125 C-107.32254709 61.57074424 -108.47749158 62.55902982 -109.6328125 63.546875 C-110.20580078 64.03736328 -110.77878906 64.52785156 -111.36914062 65.03320312 C-112.52587052 66.02338474 -113.68415569 67.0117524 -114.84399414 67.99829102 C-115.99043446 68.98519276 -117.12529048 69.985721 -118.24780273 70.99975586 C-122.67656827 74.95462501 -127.37710984 77.95396402 -132.5078125 80.921875 C-134.28104619 81.96819302 -136.05313054 83.01646068 -137.82421875 84.06640625 C-138.75508301 84.6176416 -139.68594727 85.16887695 -140.64501953 85.73681641 C-154.0384658 93.7380089 -167.38555111 101.88765903 -179.89111328 111.23339844 C-181.7313373 112.6043359 -183.58591622 113.95449328 -185.44140625 115.3046875 C-207.67177932 131.58385482 -229.67920276 150.81803761 -245.5703125 173.484375 C-245.9916748 174.07202637 -246.41303711 174.65967773 -246.84716797 175.26513672 C-266.52007437 202.83939638 -277.91296677 236.57550963 -272.69799805 270.61279297 C-271.40581485 277.87140447 -269.3241121 284.65004645 -266.5703125 291.484375 C-266.28542969 292.4021875 -266.00054687 293.32 -265.70703125 294.265625 C-261.82190679 305.26680215 -255.76383943 315.22285199 -247.5703125 323.484375 C-246.48133217 324.79219349 -245.39798338 326.1047217 -244.3203125 327.421875 C-230.8469638 342.6815778 -209.66867952 354.76366324 -189.9453125 359.546875 C-188.67429687 359.86785156 -187.40328125 360.18882812 -186.09375 360.51953125 C-174.91024297 363.00432875 -164.07642758 363.83145308 -152.66040039 363.80004883 C-150.2711804 363.79689266 -147.88320847 363.82043107 -145.49414062 363.84570312 C-129.8613158 363.91073629 -116.19042545 361.05829306 -101.5703125 355.484375 C-99.92756049 354.953903 -98.28208849 354.43170187 -96.6328125 353.921875 C-92.58083378 352.59877991 -89.227805 350.66480322 -85.5703125 348.484375 C-84.79429687 348.18789063 -84.01828125 347.89140625 -83.21875 347.5859375 C-63.46797374 339.37101286 -42.79274807 318.26360967 -32.5703125 299.484375 C-32.5703125 298.824375 -32.5703125 298.164375 -32.5703125 297.484375 C-31.9103125 297.484375 -31.2503125 297.484375 -30.5703125 297.484375 C-29.24838451 294.7802945 -27.93766429 292.07168232 -26.6328125 289.359375 C-26.25962891 288.59882813 -25.88644531 287.83828125 -25.50195312 287.0546875 C-23.49207824 282.85386791 -22.04289224 279.18016736 -21.5703125 274.484375 C-20.9103125 274.484375 -20.2503125 274.484375 -19.5703125 274.484375 C-19.30476562 273.47117187 -19.03921875 272.45796875 -18.765625 271.4140625 C-18.40895561 270.06247323 -18.05217907 268.71091222 -17.6953125 267.359375 C-17.43427734 266.36164063 -17.43427734 266.36164063 -17.16796875 265.34375 C-16.37789616 262.35903132 -15.55612498 259.44384689 -14.53515625 256.52734375 C-13.32195529 252.70109458 -12.66055964 248.87634841 -12.0078125 244.921875 C-11.75698108 243.44132644 -11.50569065 241.96085555 -11.25390625 240.48046875 C-11.14618896 239.83263428 -11.03847168 239.1847998 -10.92749023 238.51733398 C-10.5703125 236.484375 -10.5703125 236.484375 -10.05310059 234.43365479 C-9.38656094 230.36186435 -9.45640764 226.38164478 -9.48852539 222.26293945 C-9.49159195 221.34192947 -9.49465851 220.42091949 -9.49781799 219.47200012 C-9.50496076 217.47551412 -9.51434433 215.47903515 -9.52571297 213.48256874 C-9.54314106 210.31635191 -9.55341534 207.15018585 -9.56163025 203.9839325 C-9.58604457 194.98248489 -9.62152344 185.98110545 -9.66625977 176.97973633 C-9.6931456 171.46913797 -9.71012233 165.9585793 -9.72112846 160.44792747 C-9.7273108 158.35448939 -9.73728138 156.26105875 -9.75120735 154.16765785 C-9.7705733 151.22931608 -9.77734069 148.29118053 -9.78149414 145.3527832 C-9.79463654 144.07198883 -9.79463654 144.07198883 -9.80804443 142.76531982 C-9.79976857 137.59814712 -9.1987129 132.84709949 -8.05951595 127.80520916 C-7.37512277 124.55837376 -7.04501191 121.29688905 -6.68334961 118.00146484 C-5.34388692 105.94738877 -2.89305259 94.26224967 -0.08325195 82.48364258 C1.58787447 75.44368515 3.00500717 68.45999493 4.01538086 61.29345703 C4.27975237 59.50096522 4.59261954 57.71451371 4.96777344 55.94189453 C5.81945842 51.41067834 5.69836936 46.83235831 5.7421875 42.234375 C5.78569336 40.73583984 5.78569336 40.73583984 5.83007812 39.20703125 C5.89608972 31.43797423 4.59604302 25.27747305 -0.46484375 19.21484375 C-18.7790526 4.48141708 -41.08473535 5.60844296 -60.5703125 18.484375 Z " fill="#699310" transform="translate(284.5703125,49.515625)"/>
<path d="M0 0 C2 2 2 2 2 4.375 C1 7 1 7 -2.0625 8.9375 C-5.28515809 10.70251348 -5.28515809 10.70251348 -5.625 13.9375 C-5.21872967 17.11603342 -5.21872967 17.11603342 -3 19.5 C-1 22 -1 22 -0.5 25 C-1.11295333 28.67772 -2.54821073 30.25102415 -5 33 C-5.33 33.99 -5.66 34.98 -6 36 C-4.68 36.66 -3.36 37.32 -2 38 C-1.95745644 39.99954746 -1.95919217 42.00041636 -2 44 C-2.33 44.33 -2.66 44.66 -3 45 C-3.06035782 48.1272895 -3.0204342 51.23868296 -2.9609375 54.36523438 C-2.92095421 57.77380997 -3.09570755 60.7236789 -4 64 C-4.09037274 65.70645002 -4.130101 67.41616623 -4.125 69.125 C-4.12757813 69.99382812 -4.13015625 70.86265625 -4.1328125 71.7578125 C-4.14537934 74.03719449 -4.14537934 74.03719449 -3 76 C-2.5 78.625 -2.5 78.625 -3 82 C-5.06570019 84.92107463 -7.51277149 87.43568796 -10 90 C-13.62280053 93.74649056 -13.62280053 93.74649056 -15.5625 98.5 C-15.12124485 101.21310217 -15.12124485 101.21310217 -13 103.8125 C-10.5896102 107.65405874 -10.16745218 110.62702156 -11 115 C-12.0278123 117.85808769 -13.11674991 119.5059661 -15 122 C-18.62187497 123.48589742 -21.26446508 122.79824452 -25 122 C-25.07347656 123.39025391 -25.07347656 123.39025391 -25.1484375 124.80859375 C-25.22320312 126.00613281 -25.29796875 127.20367187 -25.375 128.4375 C-25.44460937 129.63246094 -25.51421875 130.82742188 -25.5859375 132.05859375 C-25.79089844 133.51458984 -25.79089844 133.51458984 -26 135 C-29.83920723 136.91960362 -34.57892267 136.41722271 -38.8125 136.62109375 C-42.08981351 136.67735002 -42.08981351 136.67735002 -44 139 C-44.16677282 142.58343976 -44.16677282 142.58343976 -44 146 C-43.01 146 -42.02 146 -41 146 C-40.875 148.875 -40.875 148.875 -41 152 C-41.66 152.66 -42.32 153.32 -43 154 C-42.90888062 156.53951544 -42.90888062 156.53951544 -42 159 C-40.515 159.99 -40.515 159.99 -39 161 C-39.09587106 165.69768178 -39.77498022 168.25684925 -43 171.75 C-45.76278477 174.32518827 -47.98897808 175.48289224 -51.625 176.4375 C-55.27359222 177.45340683 -56.78538021 178.4690575 -58.8125 181.6875 C-59.95289426 183.76681887 -60.92509348 185.80241495 -61.765625 188.01953125 C-64.24868205 194.19065833 -68.44298594 196.72364753 -74.02734375 200.140625 C-77.03797594 201.88664864 -77.03797594 201.88664864 -79.37109375 204.25 C-82.98131736 206.65323949 -85.99745031 206.11589476 -90.125 205.75 C-97.78840617 205.36954721 -101.95730873 206.92287658 -107.8984375 212.0546875 C-108.59195313 212.69664062 -109.28546875 213.33859375 -110 214 C-113 216 -113 216 -115.6875 215.625 C-116.450625 215.41875 -117.21375 215.2125 -118 215 C-118.33 212.69 -118.66 210.38 -119 208 C-120.98 208 -122.96 208 -125 208 C-125.66 206.02 -126.32 204.04 -127 202 C-128.258125 202.20625 -129.51625 202.4125 -130.8125 202.625 C-134.4014758 203.21335669 -134.75073878 203.16617415 -138 201 C-138.24536133 198.7409668 -138.24536133 198.7409668 -138.08203125 195.94921875 C-138.04529297 194.94052734 -138.00855469 193.93183594 -137.97070312 192.89257812 C-137.86578118 190.76693721 -137.74871781 188.64185863 -137.61914062 186.51757812 C-137.22327078 181.06570074 -137.22327078 181.06570074 -139.32714844 176.2800293 C-140.8257804 175.10713856 -142.4102898 174.04613188 -144 173 C-144.625 169.4375 -144.625 169.4375 -144 166 C-142.9790625 165.01 -142.9790625 165.01 -141.9375 164 C-140.9784375 163.01 -140.9784375 163.01 -140 162 C-140.12305878 158.55435413 -140.46534217 155.98020601 -142.125 152.9375 C-143.51116147 149.86814247 -142.97158733 148.21838304 -142 145 C-138.8525926 139.30720608 -134.79502647 134.41178389 -130.41796875 129.62890625 C-127.79089539 126.61102859 -127.94458691 124.35278734 -127.9128418 120.43847656 C-127.75211097 111.14304992 -127.75211097 111.14304992 -125.51953125 107.75 C-123.74744896 106.29908401 -121.99001115 105.12840193 -120 104 C-116.37483676 100.97903063 -115.12160236 98.20264265 -113.7109375 93.8046875 C-113 92 -113 92 -111 90 C-108.1796875 89.8046875 -108.1796875 89.8046875 -104.875 89.875 C-103.77929688 89.89304687 -102.68359375 89.91109375 -101.5546875 89.9296875 C-100.71164063 89.95289063 -99.86859375 89.97609375 -99 90 C-98.67 88.02 -98.34 86.04 -98 84 C-95.03 83.01 -95.03 83.01 -92 82 C-91.957279 80.33388095 -91.95936168 78.66617115 -92 77 C-92.33 76.67 -92.66 76.34 -93 76 C-93.37630655 72.08641191 -93.42070538 69.72915272 -91.43359375 66.28515625 C-89 64 -89 64 -85.546875 63.51171875 C-83.66742188 63.59873047 -83.66742188 63.59873047 -81.75 63.6875 C-80.48671875 63.73261719 -79.2234375 63.77773437 -77.921875 63.82421875 C-76.47554687 63.91123047 -76.47554687 63.91123047 -75 64 C-74.814375 62.6078125 -74.814375 62.6078125 -74.625 61.1875 C-74 58 -74 58 -72 55 C-69.6859378 54.26924352 -67.35171131 53.59861742 -65 53 C-63.39797384 51.39797384 -63.84260838 49.5251789 -63.75 47.3125 C-63.23651704 42.10325254 -62.13585953 39.46061715 -58 36 C-55.54197656 35.15531841 -53.07156032 34.53347214 -50.55078125 33.90234375 C-46.91396864 32.61581433 -44.69311039 30.40840268 -41.94140625 27.7734375 C-38.11426334 24.27741561 -33.53666193 21.88276323 -29.0625 19.3125 C-26.86780317 18.16435281 -26.86780317 18.16435281 -26 16 C-24.72125 15.896875 -23.4425 15.79375 -22.125 15.6875 C-18.59103909 15.3657728 -18.59103909 15.3657728 -16.125 12.75 C-15.40574638 10.99182448 -14.7151699 9.22146439 -14.0625 7.4375 C-12.80458561 4.5516964 -11.42352016 2.99584013 -9 1 C-6.03318514 -0.14844446 -3.16171095 -0.24960876 0 0 Z " fill="#1D1A0C" transform="translate(219,141)"/>
<path d="M0 0 C5.47184337 4.56485294 7.37912133 8.20958796 8.58203125 15.2265625 C9.24203125 15.2265625 9.90203125 15.2265625 10.58203125 15.2265625 C11.57182067 31.11975264 10.17733879 45.90203469 7.20703125 61.4765625 C6.96870071 62.732341 6.96870071 62.732341 6.72555542 64.01348877 C6.26266106 66.42503383 5.78938699 68.83415093 5.30859375 71.2421875 C5.16576462 71.96000397 5.02293549 72.67782043 4.8757782 73.41738892 C4.03824898 77.47025292 2.90709079 81.31083495 1.58203125 85.2265625 C1.1997457 87.92521529 0.88685936 90.57841608 0.64453125 93.2890625 C0.12435828 98.9548505 -0.45232434 104.6037375 -1.17578125 110.24755859 C-3.6475223 130.27607111 -3.71948871 150.05719891 -3.50738525 170.2098999 C-2.9019954 228.21887746 -2.9019954 228.21887746 -8.41796875 241.6640625 C-9.56378118 244.39259521 -9.56378118 244.39259521 -10.23046875 248.1015625 C-12.71232196 259.75463889 -17.0991963 271.5890176 -22.41796875 282.2265625 C-23.07796875 282.2265625 -23.73796875 282.2265625 -24.41796875 282.2265625 C-24.64484375 282.8659375 -24.87171875 283.5053125 -25.10546875 284.1640625 C-30.45471561 296.6456385 -39.26033616 306.36950149 -48.41796875 316.2265625 C-49.03027344 316.90460938 -49.64257812 317.58265625 -50.2734375 318.28125 C-73.57338459 343.02191877 -110.03639588 356.20762107 -143.5078125 357.48046875 C-153.92934132 357.68784252 -164.1391322 357.00077068 -174.41796875 355.2265625 C-175.17464844 355.09765625 -175.93132812 354.96875 -176.7109375 354.8359375 C-208.63725796 349.21107191 -238.40970761 332.75711747 -257.24316406 305.94042969 C-274.70510303 280.46602995 -282.04949636 246.12463851 -276.35498047 215.46777344 C-275.55701932 211.98732118 -274.5494526 208.61164887 -273.41796875 205.2265625 C-273.21284668 204.57300781 -273.00772461 203.91945313 -272.79638672 203.24609375 C-266.79912765 184.38830308 -256.45379797 166.81128211 -244.15234375 151.40625 C-242.91083039 149.84596969 -241.69480042 148.26527777 -240.49609375 146.671875 C-239.8721875 145.84429687 -239.24828125 145.01671875 -238.60546875 144.1640625 C-238.04214844 143.40996094 -237.47882813 142.65585938 -236.8984375 141.87890625 C-236.40988281 141.33363281 -235.92132813 140.78835937 -235.41796875 140.2265625 C-234.75796875 140.2265625 -234.09796875 140.2265625 -233.41796875 140.2265625 C-232.75796875 138.9065625 -232.09796875 137.5865625 -231.41796875 136.2265625 C-230.75796875 136.2265625 -230.09796875 136.2265625 -229.41796875 136.2265625 C-229.17046875 135.6490625 -228.92296875 135.0715625 -228.66796875 134.4765625 C-227.23496887 131.89716271 -225.63372199 130.16534658 -223.41796875 128.2265625 C-222.75796875 128.2265625 -222.09796875 128.2265625 -221.41796875 128.2265625 C-221.19625 127.67097656 -220.97453125 127.11539063 -220.74609375 126.54296875 C-215.11684486 116.72489643 -202.32774522 109.02714907 -193.41796875 102.2265625 C-192.41894531 101.45441406 -191.41992188 100.68226563 -190.390625 99.88671875 C-183.24436786 94.42870491 -175.84938913 89.42819972 -168.33691406 84.49707031 C-166.44349782 83.24346495 -164.56564614 81.96956299 -162.69140625 80.6875 C-156.32639779 76.34867334 -149.90768245 72.27448882 -143.16796875 68.5390625 C-142.4927417 68.16354248 -141.81751465 67.78802246 -141.12182617 67.40112305 C-140.4641626 67.03543213 -139.80649902 66.66974121 -139.12890625 66.29296875 C-128.74469004 60.51546298 -120.4860104 53.87530866 -111.94970703 45.68164062 C-109.49166374 43.34661703 -106.93399352 41.13481322 -104.36328125 38.92578125 C-101.0186602 36.00427491 -97.77581319 32.96858854 -94.51953125 29.94921875 C-92.41796875 28.2265625 -92.41796875 28.2265625 -90.41796875 28.2265625 C-90.04671875 27.3603125 -90.04671875 27.3603125 -89.66796875 26.4765625 C-88.23496887 23.89716271 -86.63372199 22.16534658 -84.41796875 20.2265625 C-83.75796875 20.2265625 -83.09796875 20.2265625 -82.41796875 20.2265625 C-82.19882813 19.68386719 -81.9796875 19.14117187 -81.75390625 18.58203125 C-79.97325888 15.44246877 -77.58261055 13.06199613 -75.04296875 10.5390625 C-74.56085938 10.04083984 -74.07875 9.54261719 -73.58203125 9.02929688 C-71.02472883 6.46851986 -69.10750559 4.60251057 -65.41796875 4.2265625 C-65.41796875 3.5665625 -65.41796875 2.9065625 -65.41796875 2.2265625 C-44.09451914 -10.39593928 -21.54001391 -15.79833007 0 0 Z M-59.41796875 6.2265625 C-59.95824707 6.58210205 -60.49852539 6.9376416 -61.05517578 7.30395508 C-68.28915309 12.37795721 -74.2546727 18.88143752 -80.41796875 25.1640625 C-94.2721095 39.24336241 -94.2721095 39.24336241 -101.41796875 45.2265625 C-102.61808098 46.25807597 -103.81730954 47.2906185 -105.015625 48.32421875 C-106.17020334 49.31293174 -107.32514783 50.30121732 -108.48046875 51.2890625 C-109.05345703 51.77955078 -109.62644531 52.27003906 -110.21679688 52.77539062 C-111.37352677 53.76557224 -112.53181194 54.7539399 -113.69165039 55.74047852 C-114.83809071 56.72738026 -115.97294673 57.7279085 -117.09545898 58.74194336 C-121.52422452 62.69681251 -126.22476609 65.69615152 -131.35546875 68.6640625 C-133.12870244 69.71038052 -134.90078679 70.75864818 -136.671875 71.80859375 C-137.60273926 72.3598291 -138.53360352 72.91106445 -139.49267578 73.47900391 C-152.88612205 81.4801964 -166.23320736 89.62984653 -178.73876953 98.97558594 C-180.57899355 100.3465234 -182.43357247 101.69668078 -184.2890625 103.046875 C-206.51943557 119.32604232 -228.52685901 138.56022511 -244.41796875 161.2265625 C-244.83933105 161.81421387 -245.26069336 162.40186523 -245.69482422 163.00732422 C-265.36773062 190.58158388 -276.76062302 224.31769713 -271.5456543 258.35498047 C-270.2534711 265.61359197 -268.17176835 272.39223395 -265.41796875 279.2265625 C-265.13308594 280.144375 -264.84820312 281.0621875 -264.5546875 282.0078125 C-260.66956304 293.00898965 -254.61149568 302.96503949 -246.41796875 311.2265625 C-245.32898842 312.53438099 -244.24563963 313.8469092 -243.16796875 315.1640625 C-229.69462005 330.4237653 -208.51633577 342.50585074 -188.79296875 347.2890625 C-187.52195312 347.61003906 -186.2509375 347.93101562 -184.94140625 348.26171875 C-173.75789922 350.74651625 -162.92408383 351.57364058 -151.50805664 351.54223633 C-149.11883665 351.53908016 -146.73086472 351.56261857 -144.34179688 351.58789062 C-128.70897205 351.65292379 -115.0380817 348.80048056 -100.41796875 343.2265625 C-98.77521674 342.6960905 -97.12974474 342.17388937 -95.48046875 341.6640625 C-91.42849003 340.34096741 -88.07546125 338.40699072 -84.41796875 336.2265625 C-83.64195312 335.93007813 -82.8659375 335.63359375 -82.06640625 335.328125 C-62.31562999 327.11320036 -41.64040432 306.00579717 -31.41796875 287.2265625 C-31.41796875 286.5665625 -31.41796875 285.9065625 -31.41796875 285.2265625 C-30.75796875 285.2265625 -30.09796875 285.2265625 -29.41796875 285.2265625 C-28.09604076 282.522482 -26.78532054 279.81386982 -25.48046875 277.1015625 C-25.10728516 276.34101563 -24.73410156 275.58046875 -24.34960938 274.796875 C-22.33973449 270.59605541 -20.89054849 266.92235486 -20.41796875 262.2265625 C-19.75796875 262.2265625 -19.09796875 262.2265625 -18.41796875 262.2265625 C-18.15242187 261.21335937 -17.886875 260.20015625 -17.61328125 259.15625 C-17.25661186 257.80466073 -16.89983532 256.45309972 -16.54296875 255.1015625 C-16.28193359 254.10382813 -16.28193359 254.10382813 -16.015625 253.0859375 C-15.22555241 250.10121882 -14.40378123 247.18603439 -13.3828125 244.26953125 C-12.16961154 240.44328208 -11.50821589 236.61853591 -10.85546875 232.6640625 C-10.60463733 231.18351394 -10.3533469 229.70304305 -10.1015625 228.22265625 C-9.99384521 227.57482178 -9.88612793 226.9269873 -9.77514648 226.25952148 C-9.41796875 224.2265625 -9.41796875 224.2265625 -8.90075684 222.17584229 C-8.23421719 218.10405185 -8.30406389 214.12383228 -8.33618164 210.00512695 C-8.3392482 209.08411697 -8.34231476 208.16310699 -8.34547424 207.21418762 C-8.35261701 205.21770162 -8.36200058 203.22122265 -8.37336922 201.22475624 C-8.39079731 198.05853941 -8.40107159 194.89237335 -8.4092865 191.72612 C-8.43370082 182.72467239 -8.46917969 173.72329295 -8.51391602 164.72192383 C-8.54080185 159.21132547 -8.55777858 153.7007668 -8.56878471 148.19011497 C-8.57496705 146.09667689 -8.58493763 144.00324625 -8.5988636 141.90984535 C-8.61822955 138.97150358 -8.62499694 136.03336803 -8.62915039 133.0949707 C-8.64229279 131.81417633 -8.64229279 131.81417633 -8.65570068 130.50750732 C-8.64742482 125.34033462 -8.04636915 120.58928699 -6.9071722 115.54739666 C-6.22277902 112.30056126 -5.89266816 109.03907655 -5.53100586 105.74365234 C-4.19154317 93.68957627 -1.74070884 82.00443717 1.0690918 70.22583008 C2.74021822 63.18587265 4.15735092 56.20218243 5.16772461 49.03564453 C5.43209612 47.24315272 5.74496329 45.45670121 6.12011719 43.68408203 C6.97180217 39.15286584 6.85071311 34.57454581 6.89453125 29.9765625 C6.93803711 28.47802734 6.93803711 28.47802734 6.98242188 26.94921875 C7.04843347 19.18016173 5.74838677 13.01966055 0.6875 6.95703125 C-17.62670885 -7.77639542 -39.9323916 -6.64936954 -59.41796875 6.2265625 Z " fill="#A6B816" transform="translate(283.41796875,61.7734375)"/>
<path d="M0 0 C3.05446964 1.50459048 4.92927977 3.3266553 7 6 C7.928125 7.11375 7.928125 7.11375 8.875 8.25 C10.76865397 12.87893192 11.79161861 18.47192768 10.2734375 23.3203125 C9.84851914 27.48451238 11.88054909 30.30633366 13.875 33.875 C22.02520308 48.58987177 19.33607393 67.00230312 15.50634766 82.89794922 C14.906646 85.38754965 14.33480315 87.88304743 13.76171875 90.37890625 C10.43667318 104.70066827 10.43667318 104.70066827 8.8828125 109.32421875 C8.0424013 111.87148277 7.65334056 114.08643559 7.4375 116.75 C7.1 120.8 7.1 120.8 6 123 C5.90033211 126.04419579 5.8602346 129.06497485 5.8671875 132.109375 C5.86623077 133.02777161 5.86527405 133.94616821 5.86428833 134.89239502 C5.86360634 136.84607003 5.86546193 138.79974729 5.86962891 140.75341797 C5.87490383 143.69634341 5.86972307 146.63911105 5.86328125 149.58203125 C5.8501791 161.23008127 5.8501791 161.23008127 6.5 172.85546875 C7.28965913 182.31583939 7.1489535 191.80298878 7.13037109 201.28930664 C7.12496013 204.58679696 7.13037133 207.88415416 7.13671875 211.18164062 C7.13605878 213.2890628 7.1347793 215.39648489 7.1328125 217.50390625 C7.13483673 218.48412247 7.13686096 219.46433868 7.13894653 220.47425842 C7.13421829 221.84740456 7.13421829 221.84740456 7.12939453 223.24829102 C7.12859894 224.04767593 7.12780334 224.84706085 7.12698364 225.67066956 C6.98948908 228.19280761 6.53404854 230.53395372 6 233 C5.82132162 234.56257286 5.66680664 236.12807669 5.53515625 237.6953125 C5.45837646 238.57074707 5.38159668 239.44618164 5.30249023 240.34814453 C5.22329346 241.26450684 5.14409668 242.18086914 5.0625 243.125 C4.46955036 249.70646001 3.754059 256.15355397 2.421875 262.6328125 C1.98161196 265.10317735 1.82452308 267.49552257 1.6875 270 C0.53018648 284.21262219 -4.22876583 303.00624554 -12 315 C-20.21179648 313.45664818 -28.09965606 310.67592295 -36 308 C-33.69 303.38 -31.38 298.76 -29 294 C-28.34 294 -27.68 294 -27 294 C-25.77589079 290.3337929 -24.55801986 286.66556804 -23.34375 282.99609375 C-22.72920173 281.14321754 -22.11461752 279.29035324 -21.5 277.4375 C-21.19191406 276.50486328 -20.88382812 275.57222656 -20.56640625 274.61132812 C-20.26605469 273.70705078 -19.96570313 272.80277344 -19.65625 271.87109375 C-19.38619141 271.05568115 -19.11613281 270.24026855 -18.83789062 269.40014648 C-17.96532097 266.90066157 -16.98477162 264.45702584 -16 262 C-15.63837971 260.67405895 -15.30271961 259.34061543 -15 258 C-14.48917239 255.73776342 -13.89261275 253.74016498 -13.00390625 251.58984375 C-7.82750647 238.23594083 -8.84911944 222.09483753 -8.98596573 207.96088982 C-9.00853673 205.51124206 -9.02225974 203.06167783 -9.03366089 200.61195374 C-9.06670532 193.65582101 -9.10776495 186.69982207 -9.17138672 179.74389648 C-9.35254814 159.25319598 -8.95791874 139.25755198 -6.35473633 118.90853882 C-5.90955287 115.25840982 -5.57236856 111.603976 -5.25959778 107.94042969 C-4.64987601 100.9709941 -3.4962449 94.44014952 -1.67871094 87.66625977 C3.58911979 67.65965955 5.86760568 47.65351434 6 27 C5.34 27 4.68 27 4 27 C3.731875 26.29875 3.46375 25.5975 3.1875 24.875 C0.79471841 19.08194982 -1.06317009 15.45000247 -6.3125 11.8125 C-7.23675781 11.15894531 -8.16101563 10.50539063 -9.11328125 9.83203125 C-11.99574199 8.00270231 -14.92060877 6.46919256 -18 5 C-15.51286505 -2.46140486 -6.4715804 -0.83904368 0 0 Z " fill="#7DA516" transform="translate(288,50)"/>
<path d="M0 0 C3.2925863 0.0822465 6.58350012 0.19494643 9.875 0.3125 C10.7928125 0.33505859 11.710625 0.35761719 12.65625 0.38085938 C21.49044304 0.72302882 29.09079519 3.01562496 37.1875 6.5 C38.20070313 6.93570313 39.21390625 7.37140625 40.2578125 7.8203125 C41.16273438 8.20960938 42.06765625 8.59890625 43 9 C44.7634375 9.680625 44.7634375 9.680625 46.5625 10.375 C53.37597739 13.59591659 59.6340536 17.57689281 65.125 22.75 C71.85077799 28.78699349 79.4263023 29.22726111 88.11279297 30.16577148 C95.25811772 31.01061794 100.41226595 33.12262432 106.1875 37.3125 C108.85902979 39.19372035 108.85902979 39.19372035 111.8125 39.25 C118.56096429 36.60354341 123.54655696 31.27101403 127 25 C127.55171875 25.44988281 128.1034375 25.89976562 128.671875 26.36328125 C131.13274867 28.09332499 133.44478805 29.11709018 136.25 30.1875 C137.14203125 30.53167969 138.0340625 30.87585938 138.953125 31.23046875 C139.96632813 31.61138672 139.96632813 31.61138672 141 32 C140.10200383 34.48744939 139.18316241 36.9632737 138.25 39.4375 C137.99734375 40.14455078 137.7446875 40.85160156 137.484375 41.58007812 C135.51666446 46.72072191 135.51666446 46.72072191 133.12109375 48.015625 C126.80678008 47.96911072 121.09243936 46.7692798 115.6875 43.5 C112.37747893 41.87173111 111.25718616 41.92275433 107.64453125 43.0078125 C105.18392631 44.09965649 102.76418046 45.21108442 100.34765625 46.390625 C85.77680172 53.39551656 68.61089141 50.13062087 53.91040039 44.99926758 C37.33819404 38.89873966 21.46757439 29.69738052 10 16 C10 15.34 10 14.68 10 14 C9.34 14 8.68 14 8 14 C6.30859375 11.953125 6.30859375 11.953125 4.4375 9.25 C3.81746094 8.36828125 3.19742187 7.4865625 2.55859375 6.578125 C1.14943227 4.24718119 0.57118328 2.60894629 0 0 Z " fill="#79A317" transform="translate(343,235)"/>
<path d="M0 0 C0.56610454 4.83842472 -1.09171728 7.04082085 -4 10.8125 C-4.7425 11.78832031 -5.485 12.76414063 -6.25 13.76953125 C-6.8275 14.50558594 -7.405 15.24164063 -8 16 C-5.8614515 18.1385485 -4.86724686 18.42655063 -2 19 C-4.98563536 28.38342541 -4.98563536 28.38342541 -7.79296875 30.08984375 C-10.15484485 31.06385637 -11.89836619 31.22888901 -14.4375 31.3125 C-17.98588524 31.65099728 -18.94093657 31.95601659 -21.9375 34.1875 C-24.06721894 37.09166218 -25.11139748 39.52637197 -26 43 C-24.02 43.66 -22.04 44.32 -20 45 C-20.76325088 51.48763251 -20.76325088 51.48763251 -22.046875 54.265625 C-23.6652929 58.90862718 -22.92022698 63.64981955 -22.6796875 68.50390625 C-23.05632468 72.6147633 -23.95536731 73.39949799 -27 76 C-27.91884408 79.32708257 -27.91884408 79.32708257 -27 83 C-25.3126855 85.16461935 -23.46749571 87.09658665 -21.57421875 89.08203125 C-20 91 -20 91 -19.3125 94.25 C-20 97 -20 97 -22 98.9375 C-24.3353167 100.95138873 -24.3353167 100.95138873 -24.5625 104.5 C-24.34238559 108.13201981 -24.34238559 108.13201981 -21.625 110.25 C-20.325625 111.11625 -20.325625 111.11625 -19 112 C-16.69836118 115.45245824 -16.65509678 116.94738713 -17 121 C-17.66 121.66 -18.32 122.32 -19 123 C-19.44949688 126.33911969 -19.71658313 128.85396635 -17.87890625 131.79296875 C-16.65335768 133.25460033 -15.33201246 134.63468722 -14 136 C-18.455 136.99 -18.455 136.99 -23 138 C-22.505 139.98 -22.505 139.98 -22 142 C-19.36 142.33 -16.72 142.66 -14 143 C-15.42141732 147.26425196 -18.1188961 148.9083395 -22 151 C-25.1875 151.625 -25.1875 151.625 -28 151 C-31.37886909 148.15463656 -31.94818455 146.46633903 -32.4375 142.0625 C-32.25385174 138.13977307 -30.78005464 135.48594034 -29 132 C-28.74855688 128.24926796 -28.74855688 128.24926796 -29 125 C-30.27875 124.9175 -31.5575 124.835 -32.875 124.75 C-36.77173306 124.24652829 -36.77173306 124.24652829 -38.5625 122.3125 C-39.12735449 119.32684055 -38.66889966 116.9431585 -38 114 C-38.69867188 113.60167969 -39.39734375 113.20335937 -40.1171875 112.79296875 C-41.02726562 112.26316406 -41.93734375 111.73335938 -42.875 111.1875 C-43.77992187 110.66542969 -44.68484375 110.14335937 -45.6171875 109.60546875 C-48 108 -48 108 -50 105 C-50.375 102.5 -50.375 102.5 -50 100 C-47.11139055 96.88918982 -44.11345859 96.46743848 -40 96 C-40.45884193 93.01752749 -41.30722012 91.55313437 -43.0625 89 C-45 86 -45 86 -45 82 C-41.04 81.01 -41.04 81.01 -37 80 C-36.6101053 76.63490881 -36.76287172 75.32741345 -38.78515625 72.53515625 C-40.30328496 70.88682782 -41.82412204 69.24098973 -43.34765625 67.59765625 C-45 65 -45 65 -44.921875 61.89453125 C-44.00268442 59.00842863 -43.24788195 57.7636243 -41.1875 55.625 C-38.13997069 51.83187564 -37.03215797 48.04876624 -36 43.375 C-33.35584988 31.60777493 -30.19777866 21.2869564 -20 14 C-15.6141082 10.45435274 -11.80540532 6.81602359 -8.26171875 2.41796875 C-5.78542225 -0.36498985 -3.53475057 -0.09301975 0 0 Z " fill="#ED7D00" transform="translate(78,214)"/>
<path d="M0 0 C1.672233 0.65257873 3.33927151 1.31867549 5 2 C7.75849468 2.2790695 10.20652246 2.18317886 13 2 C13.66 1.34 14.32 0.68 15 0 C18.01305957 0.38878188 19.39685311 1.26456874 22 3 C22.41507812 3.82242188 22.83015625 4.64484375 23.2578125 5.4921875 C25.66849412 8.9622718 27.81986151 9.17337131 31.875 10.125 C38.5485934 11.72609566 38.5485934 11.72609566 41.3046875 13.3984375 C45.36832139 15.81306054 49.76434464 17.05930564 54.25 18.5 C55.15363281 18.79519531 56.05726563 19.09039062 56.98828125 19.39453125 C58.79051783 19.98317543 60.59472084 20.56583448 62.40087891 21.14233398 C64.07660592 21.69529556 65.74199499 22.28118263 67.39208984 22.90649414 C72.66435868 24.87297223 76.58163283 25.17296199 82.125 24.4375 C90.64007474 23.64592468 90.64007474 23.64592468 93.9375 25.4375 C98.04255138 28.87233891 102.08830959 32.34554094 106 36 C104.01283395 42.04605841 100.0275434 45.31029442 95 49 C91.875 50.3125 91.875 50.3125 89 50 C87.33665979 48.83566185 85.67963126 47.65926962 84.08203125 46.40625 C77.46323076 41.93576562 69.52238593 40.80917249 61.75 40 C51.62562784 38.91170089 46.72898309 35.80365117 39.328125 29.01953125 C31.29891194 22.05459307 21.97067884 19.05869078 12 16 C3.39534884 13.19767442 3.39534884 13.19767442 1 12 C-2.78300443 11.7668011 -6.55983009 11.60509239 -10.34765625 11.48242188 C-11.13785156 11.44826172 -11.92804688 11.41410156 -12.7421875 11.37890625 C-13.4626123 11.3538501 -14.18303711 11.32879395 -14.92529297 11.30297852 C-17.34218322 10.95002949 -18.94894221 10.32619595 -21 9 C-22.25 5.875 -22.25 5.875 -23 3 C-22.11248047 3.05220703 -22.11248047 3.05220703 -21.20703125 3.10546875 C-16.1151236 3.36495505 -16.1151236 3.36495505 -11.5 1.5 C-7.77456563 -0.73526062 -4.24561554 -0.47519734 0 0 Z " fill="#88AD27" transform="translate(363,225)"/>
<path d="M0 0 C1.18078125 0.57105469 2.3615625 1.14210937 3.578125 1.73046875 C12.11757174 5.99583304 19.50533643 11.08085695 27 17 C29.21739943 18.6123416 31.44001358 20.21635115 33.671875 21.80859375 C34.11015625 22.20175781 34.5484375 22.59492188 35 23 C35 23.66 35 24.32 35 25 C35.57234375 25.2475 36.1446875 25.495 36.734375 25.75 C39.35010611 27.19316199 41.14773456 28.88216222 43.25 31 C44.30960938 32.051875 44.30960938 32.051875 45.390625 33.125 C47 35 47 35 47 37 C47.99 37.33 48.98 37.66 50 38 C53 41.44444444 53 41.44444444 53 44 C53.66 44 54.32 44 55 44 C56.64543816 45.98492448 58.14444897 47.95844186 59.625 50.0625 C60.06577881 50.68503662 60.50655762 51.30757324 60.96069336 51.94897461 C64.11576442 56.50402678 66.94117998 61.18207209 69.5625 66.0625 C69.89652832 66.68068604 70.23055664 67.29887207 70.57470703 67.93579102 C72.30430621 71.26183841 73.48665048 74.279974 74 78 C70.62691239 76.87563746 69.84876903 75.92657267 67.625 73.25 C64.34389394 69.38665174 60.89171574 65.81237225 57.23046875 62.3046875 C53.3807556 58.55368494 49.86789412 54.69244751 46.5 50.5 C41.51227921 44.3145418 36.41441862 38.64594355 29.9375 34 C26.28374752 31.3738654 23.58759744 28.35547198 20.6875 24.9375 C14.14286982 17.42329498 4.46122175 11.15374058 -5 8 C-7.61697371 7.87728477 -10.19567761 7.81487246 -12.8125 7.8125 C-13.86147461 7.79413086 -13.86147461 7.79413086 -14.93164062 7.77539062 C-19.38955896 7.7628801 -22.82448702 8.54587031 -27 10 C-29.4921875 10.046875 -29.4921875 10.046875 -31.875 9.75 C-32.73222656 9.64429688 -33.58945312 9.53859375 -34.47265625 9.4296875 C-36.80661148 9.03287904 -39.03205937 8.50438437 -41.3125 7.875 C-44.85129164 7.03528673 -46.63325738 6.7494956 -50 8 C-52.77971901 10.54745138 -55.10377316 13.47722531 -57.5 16.37890625 C-59 18 -59 18 -62 20 C-60.50125873 16.88722968 -58.78835363 13.95445819 -57 11 C-58.08539063 10.90203125 -59.17078125 10.8040625 -60.2890625 10.703125 C-61.73446565 10.55295324 -63.17977353 10.40186268 -64.625 10.25 C-65.33785156 10.188125 -66.05070312 10.12625 -66.78515625 10.0625 C-71.79128392 9.51136668 -74.98011431 8.24064631 -79 5 C-79.33 4.34 -79.66 3.68 -80 3 C-76.41005011 1.80335004 -73.11285485 1.80949908 -69.375 1.8125 C-68.65513916 1.81113037 -67.93527832 1.80976074 -67.19360352 1.80834961 C-62.53083945 1.85091513 -58.38016119 2.43346883 -53.859375 3.59765625 C-47.09408244 5.0615746 -41.52881085 1.45055881 -35.76953125 -1.625 C-25.22693618 -6.85912336 -10.20473809 -5.11678252 0 0 Z " fill="#78A317" transform="translate(405,127)"/>
<path d="M0 0 C5.60959255 3.1709161 10.75705187 6.64525507 15.5625 10.9375 C16.23667969 11.53046875 16.91085937 12.1234375 17.60546875 12.734375 C23.69053255 18.43103047 30.18482464 25.82042008 32.3828125 33.984375 C33.96557289 37.9465169 36.66181241 39.72406623 40.0625 42.0625 C46.88945348 46.84581014 46.88945348 46.84581014 48.5625 50.9375 C49.2225 51.2675 49.8825 51.5975 50.5625 51.9375 C50.5625 54.9075 50.5625 57.8775 50.5625 60.9375 C48.26171875 61.24609375 48.26171875 61.24609375 45.5625 60.9375 C43.89453125 58.84765625 43.89453125 58.84765625 42.375 56 C38.68329776 49.72329838 34.09555022 45.57660503 28.5625 40.9375 C25.75297739 38.31120712 23.67991769 36.12309571 21.625 32.875 C18.6234024 28.59999736 15.86431711 26.43096961 10.68359375 25.3203125 C8.61566841 24.99045938 6.54245127 24.69172809 4.46484375 24.4296875 C-0.13911279 23.64893579 -3.3461459 22.31947648 -6.6875 19.0625 C-13.11062766 13.40073445 -19.47029934 11.51678198 -27.95703125 11.30859375 C-30.91554929 10.86598081 -32.28326611 9.98353036 -34.4375 7.9375 C-35 5.5 -35 5.5 -34.4375 2.9375 C-25.63346893 -6.12547316 -10.57608967 -5.12153745 0 0 Z " fill="#B5C978" transform="translate(407.4375,137.0625)"/>
<path d="M0 0 C0.8125 1.6875 0.8125 1.6875 1 4 C-2.36747588 7.76881378 -6.19707932 10.76711771 -10.25 13.75 C-14.42691009 16.86241486 -18.09596076 20.0147152 -21.625 23.875 C-26.13993979 28.59780995 -30.85466146 30.15830693 -37 32 C-42.44680703 34.27775567 -45.15666721 36.87380722 -48.15625 41.9609375 C-51.88070109 47.78580577 -55.43008803 49.15919386 -61.97265625 51.02734375 C-72.92671325 54.54677626 -79.3510971 63.73130353 -86.3125 72.3125 C-89.68776089 76.45274216 -93.12806769 80.51788131 -96.6875 84.5 C-97.99267578 85.96953125 -97.99267578 85.96953125 -99.32421875 87.46875 C-103.12113279 91.06057525 -106.91222039 93.44909672 -112.25 93.3125 C-116 93 -116 93 -118 91 C-117.8219889 86.86124199 -115.09813697 84.79688002 -112.25 82.0625 C-111.38890625 81.22847656 -110.5278125 80.39445312 -109.640625 79.53515625 C-108.76921875 78.69855469 -107.8978125 77.86195313 -107 77 C-106.13117188 76.08863281 -105.26234375 75.17726563 -104.3671875 74.23828125 C-102 72 -102 72 -98.875 71.125 C-95.63574681 70.24589017 -95.63574681 70.24589017 -94.5 66.625 C-94.005 65.42875 -93.51 64.2325 -93 63 C-91.01399663 61.6459068 -89.01182457 60.31542376 -87 59 C-85.08837699 56.77991977 -83.34577432 54.48286016 -81.61328125 52.12109375 C-77.86090796 47.187586 -77.86090796 47.187586 -74.29296875 46.41015625 C-73.26816406 46.29542969 -72.24335938 46.18070313 -71.1875 46.0625 C-64.08160195 44.99618877 -60.43258685 42.52545432 -55.5625 37.375 C-49.83954277 31.49972072 -42.86888535 27.39735493 -36 23 C-27.83557711 17.75975709 -20.24918723 12.58229366 -13.1484375 5.91796875 C-9.03673945 2.24734377 -5.65663649 0 0 0 Z " fill="#ED7D00" transform="translate(207,117)"/>
<path d="M0 0 C2.4375 0.5625 2.4375 0.5625 4.06640625 2.72265625 C8.58605159 12.083859 4.74658449 24.89181148 1.5234375 34.203125 C-0.37483971 38.86393572 -2.4260331 42.50939348 -6.5625 45.5625 C-9.6875 46.125 -9.6875 46.125 -12.5625 45.5625 C-14.85907057 43.28221717 -15.51878397 41.85748477 -15.99609375 38.63671875 C-16.00993082 26.63997933 -14.29984226 14.20937866 -6.5625 4.5625 C-5.9025 3.7375 -5.2425 2.9125 -4.5625 2.0625 C-2.5625 0.5625 -2.5625 0.5625 0 0 Z " fill="#405F00" transform="translate(491.5625,261.4375)"/>
<path d="M0 0 C0.82757813 0.67482422 0.82757813 0.67482422 1.671875 1.36328125 C4.13274867 3.09332499 6.44478805 4.11709018 9.25 5.1875 C10.58804687 5.70376953 10.58804687 5.70376953 11.953125 6.23046875 C12.62859375 6.48441406 13.3040625 6.73835938 14 7 C13.10200383 9.48744939 12.18316241 11.9632737 11.25 14.4375 C10.99734375 15.14455078 10.7446875 15.85160156 10.484375 16.58007812 C8.51694542 21.7199879 8.51694542 21.7199879 6.125 23.015625 C-1.65974036 22.95838426 -8.2866086 20.80003287 -15 17 C-13.80994274 13.42982821 -12.75896631 12.88218142 -9.75 10.75 C-5.49800755 7.56948252 -2.8283712 4.47065126 0 0 Z " fill="#6F9D27" transform="translate(470,260)"/>
<path d="M0 0 C3.05446964 1.50459048 4.92927977 3.3266553 7 6 C7.61875 6.7425 8.2375 7.485 8.875 8.25 C10.54498476 12.33218497 11.33014233 16.58614057 11 21 C9.5078125 23.30859375 9.5078125 23.30859375 8 25 C6.91160226 24.11032656 5.82955392 23.21288426 4.75 22.3125 C4.14671875 21.81363281 3.5434375 21.31476563 2.921875 20.80078125 C1 19 1 19 -0.890625 16.5234375 C-3.20123964 13.75925776 -5.43492273 12.18607058 -8.5 10.3125 C-9.4384375 9.73113281 -10.376875 9.14976563 -11.34375 8.55078125 C-13.53165097 7.27343318 -15.71626594 6.09339154 -18 5 C-15.51286505 -2.46140486 -6.4715804 -0.83904368 0 0 Z " fill="#908700" transform="translate(288,50)"/>
<path d="M0 0 C5.26673902 0.8464402 9.07594493 3.69531781 13.5 6.5625 C18.02531077 9.30483833 22.60602465 11.56495904 27.5 13.5625 C27.83 12.9025 28.16 12.2425 28.5 11.5625 C29.82 15.1925 31.14 18.8225 32.5 22.5625 C19.0480234 20.3205039 6.55406912 17.36521739 -3.5 7.5625 C-4.5 5.4375 -4.5 5.4375 -4.5 3.5625 C-2.5 0.5625 -2.5 0.5625 0 0 Z " fill="#6E9C26" transform="translate(310.5,212.4375)"/>
<path d="M0 0 C-1.66193275 2.00409538 -3.32941829 4.0031328 -5 6 C-5.515625 6.62261719 -6.03125 7.24523437 -6.5625 7.88671875 C-7.078125 8.50160156 -7.59375 9.11648437 -8.125 9.75 C-8.60195313 10.32234375 -9.07890625 10.8946875 -9.5703125 11.484375 C-11 13 -11 13 -14 15 C-12.50125873 11.88722968 -10.78835363 8.95445819 -9 6 C-10.08539063 5.90203125 -11.17078125 5.8040625 -12.2890625 5.703125 C-13.73446565 5.55295324 -15.17977353 5.40186268 -16.625 5.25 C-17.33785156 5.188125 -18.05070312 5.12625 -18.78515625 5.0625 C-23.79128392 4.51136668 -26.98011431 3.24064631 -31 0 C-31.33 -0.66 -31.66 -1.32 -32 -2 C-21.96763111 -5.34412296 -9.85088245 -2.8338155 0 0 Z " fill="#6E9C24" transform="translate(357,132)"/>
<path d="M0 0 C6.39887109 0.57789476 6.39887109 0.57789476 9.06640625 3.40234375 C10.06180982 6.53075497 10.02303829 8.07385257 8.94140625 11.15234375 C6.94140625 13.15234375 6.94140625 13.15234375 4.62890625 13.58984375 C0.7090436 12.95172657 -0.64722608 11.23353577 -3.05859375 8.15234375 C-3.99609375 4.96484375 -3.99609375 4.96484375 -4.05859375 2.15234375 C-2.05859375 0.15234375 -2.05859375 0.15234375 0 0 Z " fill="#402B0D" transform="translate(163.05859375,193.84765625)"/>
<path d="M0 0 C1.4874707 0.2940681 2.96609025 0.63394196 4.4375 1 C6.01337891 1.37318359 6.01337891 1.37318359 7.62109375 1.75390625 C10.56867892 2.47257543 13.50487227 3.22285365 16.4375 4 C15.4475 6.31 14.4575 8.62 13.4375 11 C4.96164773 8.23011364 4.96164773 8.23011364 1.875 6.875 C-1.57324434 5.6371687 -4.92003928 5.37041973 -8.5625 5 C-5.78802742 1.445207 -4.62637175 0 0 0 Z " fill="#87AC27" transform="translate(359.5625,133)"/>
<path d="M0 0 C2 2 2 2 2.125 5.625 C2.08375 6.73875 2.0425 7.8525 2 9 C-4.20229008 11.14694656 -4.20229008 11.14694656 -7.375 10.5625 C-9 9 -9 9 -9.9375 5.5625 C-10 2 -10 2 -9 0 C-5.82179635 -1.58910182 -3.364966 -0.7953556 0 0 Z " fill="#442E0D" transform="translate(209,163)"/>
<path d="M0 0 C3.6875 0.25 3.6875 0.25 6.125 1.4375 C7.6875 3.25 7.6875 3.25 8.0625 5.8125 C7.6875 8.25 7.6875 8.25 5.6875 10.25 C1.73283228 10.68940752 -0.46846712 10.81972219 -3.8125 8.5625 C-5.3125 6.25 -5.3125 6.25 -5.125 3.5625 C-3.89115854 0.05079739 -3.92959291 0.29657305 0 0 Z " fill="#36260D" transform="translate(122.3125,242.75)"/>
<path d="M0 0 C3.78517206 0.25662183 5.01775858 0.68704824 7.6875 3.25 C7.3125 5.6875 7.3125 5.6875 6.6875 8.25 C3.9076184 9.6399408 1.7688674 9.43488204 -1.3125 9.25 C-3.6875 8.25 -3.6875 8.25 -5.3125 7.25 C-4.2808313 0.32308161 -4.2808313 0.32308161 0 0 Z " fill="#37260C" transform="translate(160.3125,287.75)"/>
<path d="M0 0 C6.08695652 0.54347826 6.08695652 0.54347826 9 2 C9.1875 4.375 9.1875 4.375 9 7 C5.54754176 9.30163882 4.05261287 9.34490322 0 9 C-2 7 -2 7 -2.25 4.5 C-2 2 -2 2 0 0 Z " fill="#36260D" transform="translate(118,300)"/>
<path d="M0 0 C1 1 1 1 1.0625 3.5625 C1.041875 4.366875 1.02125 5.17125 1 6 C-2.21451269 7.60725635 -5.43612536 7.05748185 -9 7 C-10.31236443 2.5856833 -10.31236443 2.5856833 -9 0.125 C-5.87102675 -1.63504746 -3.39386206 -0.75419157 0 0 Z " fill="#46300D" transform="translate(193,203)"/>
<path d="M0 0 C1.875 1.1875 1.875 1.1875 3 3 C2.6875 5.6875 2.6875 5.6875 2 8 C-4.0546875 8.1953125 -4.0546875 8.1953125 -6 8 C-6.66 7.34 -7.32 6.68 -8 6 C-7.75 3.4375 -7.75 3.4375 -7 1 C-4.45132831 -0.27433584 -2.82594567 -0.27570202 0 0 Z " fill="#452F0D" transform="translate(201,189)"/>
<path d="M0 0 C0.66 0.66 1.32 1.32 2 2 C1.625 4.125 1.625 4.125 1 6 C-2.25 6.75 -2.25 6.75 -6 7 C-8.4375 5.0625 -8.4375 5.0625 -10 3 C-9.67 2.01 -9.34 1.02 -9 0 C-5.88135455 -1.55932272 -3.33704665 -0.65549131 0 0 Z " fill="#462F0D" transform="translate(198,220)"/>
<path d="M0 0 C3.0625 0.1875 3.0625 0.1875 5.0625 2.1875 C5.25 4.75 5.25 4.75 5.0625 7.1875 C4.0625 8.1875 4.0625 8.1875 0.625 8.375 C-2.9375 8.1875 -2.9375 8.1875 -4.9375 6.1875 C-4.21574268 0.26908996 -4.21574268 0.26908996 0 0 Z " fill="#39280D" transform="translate(163.9375,237.8125)"/>
<path d="M0 0 C1 1 1 1 1.125 4 C1 7 1 7 0 8 C-2.69082872 7.82364548 -5.32851446 7.38164079 -8 7 C-8.33 5.35 -8.66 3.7 -9 2 C-5.55892734 -0.29404844 -4.03160191 -0.26293056 0 0 Z " fill="#34260D" transform="translate(161,270)"/>
<path d="M0 0 C6.625 -0.25 6.625 -0.25 10 2 C9.67 3.65 9.34 5.3 9 7 C2.9453125 7.1953125 2.9453125 7.1953125 1 7 C0.34 6.34 -0.32 5.68 -1 5 C-0.625 2.375 -0.625 2.375 0 0 Z " fill="#3B1E00" transform="translate(91,325)"/>
<path d="M0 0 C0 3 0 3 -2.47851562 5.8190918 C-3.61342476 6.9535252 -4.75660841 8.07971791 -5.90625 9.19921875 C-6.50554321 9.79426712 -7.10483643 10.38931549 -7.72229004 11.00239563 C-9.64128092 12.90457052 -11.57043112 14.79606205 -13.5 16.6875 C-14.80146301 17.97392 -16.10225318 19.2610211 -17.40234375 20.54882812 C-20.59380369 23.70718002 -23.79441498 26.85598797 -27 30 C-27.66 29.67 -28.32 29.34 -29 29 C-17.18297393 15.90279611 -17.18297393 15.90279611 -10.95703125 10.69921875 C-7.10002215 7.35031863 -3.57263437 3.64706425 0 0 Z " fill="#F7C911" transform="translate(123,202)"/>
<path d="M0 0 C0.99 0.66 1.98 1.32 3 2 C2.125 6.875 2.125 6.875 1 8 C-1.9375 8.1875 -1.9375 8.1875 -5 8 C-7 6 -7 6 -7.125 3.375 C-7.08375 2.59125 -7.0425 1.8075 -7 1 C-4.47454232 -0.26272884 -2.80127043 -0.20497101 0 0 Z " fill="#35260D" transform="translate(136,260)"/>
<path d="M0 0 C0.33 0.99 0.66 1.98 1 3 C0.01 4.485 0.01 4.485 -1 6 C-2.9453125 6.29296875 -2.9453125 6.29296875 -5.125 6.1875 C-6.40375 6.125625 -7.6825 6.06375 -9 6 C-9.6875 4.1875 -9.6875 4.1875 -10 2 C-7.63939534 -2.27859594 -4.19472714 -0.87060375 0 0 Z " fill="#3D2A0D" transform="translate(170,224)"/>
<path d="M0 0 C3.5625 0.125 3.5625 0.125 5.5625 1.125 C4.6875 6 4.6875 6 3.5625 7.125 C1.22305264 6.83769945 -1.1114143 6.50563221 -3.4375 6.125 C-3.81968767 4.46885343 -4.15145102 2.80042976 -4.4375 1.125 C-3.4375 0.125 -3.4375 0.125 0 0 Z " fill="#3D2A0D" transform="translate(186.4375,240.875)"/>
<path d="M0 0 C4.875 0.875 4.875 0.875 6 2 C6.04080783 3.99958364 6.04254356 6.00045254 6 8 C4.25 8.6875 4.25 8.6875 2 9 C-0.25 7.8125 -0.25 7.8125 -2 6 C-2 4.68 -2 3.36 -2 2 C-1.34 2 -0.68 2 0 2 C0 1.34 0 0.68 0 0 Z " fill="#6D6D5F" transform="translate(106,308)"/>
<path d="M0 0 C0.94875 0.04125 1.8975 0.0825 2.875 0.125 C3 2.5 3 2.5 2.875 5.125 C0.875 7.125 0.875 7.125 -2.75 7.25 C-3.86375 7.20875 -4.9775 7.1675 -6.125 7.125 C-5.03177966 0.20127119 -5.03177966 0.20127119 0 0 Z " fill="#35260D" transform="translate(108.125,291.875)"/>
<path d="M0 0 C2.31 0.33 4.62 0.66 7 1 C7.38218767 2.65614657 7.71395102 4.32457024 8 6 C7 7 7 7 4.0625 7.1875 C1 7 1 7 -1 5 C-0.625 2.375 -0.625 2.375 0 0 Z " fill="#757566" transform="translate(117,280)"/>
<path d="M0 0 C0.66 0.66 1.32 1.32 2 2 C1.625 4.625 1.625 4.625 1 7 C-1.875 7.125 -1.875 7.125 -5 7 C-5.66 6.34 -6.32 5.68 -7 5 C-7 3.68 -7 2.36 -7 1 C-4.48718205 -0.25640898 -2.78302919 -0.20872719 0 0 Z " fill="#33250D" transform="translate(150,222)"/>
<path d="M0 0 C0.33 0 0.66 0 1 0 C1.02505615 0.66942627 1.0501123 1.33885254 1.07592773 2.02856445 C1.19347076 5.12333094 1.31546486 8.21790752 1.4375 11.3125 C1.47681641 12.36501953 1.51613281 13.41753906 1.55664062 14.50195312 C1.83098364 21.36052848 2.30680652 28.17098103 3 35 C2.01 35 1.02 35 0 35 C0 23.45 0 11.9 0 0 Z " fill="#769B11" transform="translate(6,292)"/>
<path d="M0 0 C2.31 0 4.62 0 7 0 C6.67 1.98 6.34 3.96 6 6 C3.625 6.625 3.625 6.625 1 7 C0.34 6.34 -0.32 5.68 -1 5 C-0.625 2.375 -0.625 2.375 0 0 Z " fill="#777768" transform="translate(146,261)"/>
<path d="M0 0 C2.31 0 4.62 0 7 0 C7.6875 1.8125 7.6875 1.8125 8 4 C6.875 5.8125 6.875 5.8125 5 7 C2.3125 6.6875 2.3125 6.6875 0 6 C0 4.02 0 2.04 0 0 Z " fill="#7A745F" transform="translate(201,182)"/>
<path d="M0 0 C3.69230769 0.69230769 3.69230769 0.69230769 5 2 C5.04080783 3.99958364 5.04254356 6.00045254 5 8 C2.625 8.125 2.625 8.125 0 8 C-0.66 7.34 -1.32 6.68 -2 6 C-1.44444444 1.44444444 -1.44444444 1.44444444 0 0 Z " fill="#817A65" transform="translate(178,215)"/>
<path d="M0 0 C1.4540625 0.0309375 1.4540625 0.0309375 2.9375 0.0625 C3.31968767 1.71864657 3.65145102 3.38707024 3.9375 5.0625 C2.9375 6.0625 2.9375 6.0625 -0.125 6.125 C-1.094375 6.104375 -2.06375 6.08375 -3.0625 6.0625 C-3.44468767 4.40635343 -3.77645102 2.73792976 -4.0625 1.0625 C-3.0625 0.0625 -3.0625 0.0625 0 0 Z " fill="#3B1E00" transform="translate(109.0625,338.9375)"/>
<path d="M0 0 C2.625 0.375 2.625 0.375 5 1 C5.33 1.99 5.66 2.98 6 4 C5.01 5.485 5.01 5.485 4 7 C1.375 7.1875 1.375 7.1875 -1 7 C-1.625 4.625 -1.625 4.625 -2 2 C-1.34 1.34 -0.68 0.68 0 0 Z " fill="#39270D" transform="translate(187,167)"/>
<path d="M0 0 C1.65 0.33 3.3 0.66 5 1 C5.33 2.65 5.66 4.3 6 6 C3.625 6.625 3.625 6.625 1 7 C0.34 6.34 -0.32 5.68 -1 5 C-0.625 2.375 -0.625 2.375 0 0 Z " fill="#717063" transform="translate(101,260)"/>
<path d="M0 0 C1.2065625 0.0309375 1.2065625 0.0309375 2.4375 0.0625 C2.7675 1.7125 3.0975 3.3625 3.4375 5.0625 C1.1275 5.3925 -1.1825 5.7225 -3.5625 6.0625 C-3.605221 4.39638095 -3.60313832 2.72867115 -3.5625 1.0625 C-2.5625 0.0625 -2.5625 0.0625 0 0 Z " fill="#7D7864" transform="translate(203.5625,206.9375)"/>
<path d="M0 0 C1.98 0 3.96 0 6 0 C6.33 1.65 6.66 3.3 7 5 C4.625 5.625 4.625 5.625 2 6 C1.34 5.34 0.68 4.68 0 4 C0 2.68 0 1.36 0 0 Z " fill="#7A7664" transform="translate(176,232)"/>
<path d="M0 0 C-0.33 1.65 -0.66 3.3 -1 5 C-3.97 4.505 -3.97 4.505 -7 4 C-7 2.68 -7 1.36 -7 0 C-4.3333581 -1.33332095 -2.83319697 -0.67102033 0 0 Z " fill="#707062" transform="translate(168,255)"/>
<path d="M0 0 C1.67542976 0.28604898 3.34385343 0.61781233 5 1 C5.33 2.32 5.66 3.64 6 5 C3.69 5.33 1.38 5.66 -1 6 C-1.042721 4.33388095 -1.04063832 2.66617115 -1 1 C-0.67 0.67 -0.34 0.34 0 0 Z " fill="#777462" transform="translate(156,212)"/>
<path d="M0 0 C1.65 0 3.3 0 5 0 C5.33 1.65 5.66 3.3 6 5 C4.34385343 5.38218767 2.67542976 5.71395102 1 6 C0 5 0 5 -0.0625 2.4375 C-0.041875 1.633125 -0.02125 0.82875 0 0 Z " fill="#727264" transform="translate(136,238)"/>
<path d="M0 0 C0 1.32 0 2.64 0 4 C-2.31 3.67 -4.62 3.34 -7 3 C-7 2.01 -7 1.02 -7 0 C-4.3333581 -1.33332095 -2.83319697 -0.67102033 0 0 Z " fill="#68685A" transform="translate(146,305)"/>
<path d="M0 0 C1.65 0.33 3.3 0.66 5 1 C5 2.32 5 3.64 5 5 C4.01 5.33 3.02 5.66 2 6 C1.01 5.34 0.02 4.68 -1 4 C-0.67 2.68 -0.34 1.36 0 0 Z " fill="#3B280D" transform="translate(164,185)"/>
<path d="M0 0 C1.32 0 2.64 0 4 0 C4.33 1.98 4.66 3.96 5 6 C3.68 5.67 2.36 5.34 1 5 C0.67 3.35 0.34 1.7 0 0 Z " fill="#787461" transform="translate(183,182)"/>
<path d="M0 0 C1.65 0 3.3 0 5 0 C5 1.32 5 2.64 5 4 C3.02 4 1.04 4 -1 4 C-0.67 2.68 -0.34 1.36 0 0 Z " fill="#36260D" transform="translate(167,266)"/>
<path d="M0 0 C1.32 0 2.64 0 4 0 C4 1.65 4 3.3 4 5 C2.35 4.67 0.7 4.34 -1 4 C-0.67 2.68 -0.34 1.36 0 0 Z " fill="#6D6958" transform="translate(198,246)"/>
<path d="M0 0 C0.8971875 0.309375 0.8971875 0.309375 1.8125 0.625 C-1.1340385 2.42566242 -4.07551935 4.12663895 -7.1875 5.625 C-5.69046729 2.17030914 -4.27938051 -0.73360809 0 0 Z " fill="#453B0D" transform="translate(165.1875,176.375)"/>
<path d="M0 0 C-1.45255699 3.82946843 -3.42895561 5.12050295 -7 7 C-3.86206897 0 -3.86206897 0 0 0 Z " fill="#55490E" transform="translate(212,142)"/>
<path d="M0 0 C-0.28875 0.556875 -0.5775 1.11375 -0.875 1.6875 C-2.0413253 4.08494645 -3.0339881 6.51596939 -4 9 C-4.33 9 -4.66 9 -5 9 C-5.36666667 3.5 -5.36666667 3.5 -3.625 1.125 C-2 0 -2 0 0 0 Z " fill="#BFA813" transform="translate(218,149)"/>
</svg>
