<?xml version="1.0" encoding="UTF-8"?>
<svg version="1.1" xmlns="http://www.w3.org/2000/svg" width="500" height="500">
<path d="M0 0 C3.40036359 15.12616647 1.81627759 31.76276399 -4 46 C-2.88625 46.268125 -1.7725 46.53625 -0.625 46.8125 C10.4141217 49.59694579 20.07604789 53.45163398 30 59 C30.96164062 59.50917969 31.92328125 60.01835938 32.9140625 60.54296875 C46.60818995 68.39992388 57.58169196 81.21062966 65 95 C65.31904297 95.59248535 65.63808594 96.1849707 65.96679688 96.79541016 C77.48455206 118.7180086 80.23606547 142.17663582 80.01403427 166.62775993 C79.99162045 169.21787107 79.97779479 171.80790486 79.96633911 174.39808655 C79.93313356 181.75483602 79.89175691 189.11145952 79.82861328 196.46801758 C79.3431921 224.89084197 79.3431921 224.89084197 83 253 C83.1390979 253.68712067 83.2781958 254.37424133 83.42150879 255.08218384 C84.31772261 259.47983089 85.34828089 263.83303868 86.4375 268.1875 C86.72431641 269.39212891 87.01113281 270.59675781 87.30664062 271.83789062 C89.01715723 278.82091274 91.10040868 285.41808823 94 292 C67.40598459 291.36924451 40.30182952 277.51626032 18 264 C15.36812839 267.30401113 13.36092697 270.81033845 11.3125 274.5 C1.85847655 291.23355615 -9.67152234 306.17573987 -23 320 C-23.66451172 320.69174316 -24.32902344 321.38348633 -25.01367188 322.09619141 C-34.46010452 331.87758899 -43.98561001 341.01641531 -55 349 C-55.65822754 349.48662109 -56.31645508 349.97324219 -56.99462891 350.47460938 C-66.34144944 357.37485864 -75.8803733 363.51942589 -86.12939453 368.98828125 C-87.85188276 369.91989065 -89.55036938 370.89552022 -91.24609375 371.875 C-131.51735596 394.64320478 -178.38415446 407.02406456 -224 413 C-224.85456787 413.1119873 -225.70913574 413.22397461 -226.58959961 413.33935547 C-235.38916388 414.30797228 -244.26072147 414.22191044 -253.1027832 414.24023438 C-255.90021295 414.24987155 -258.69688447 414.28094551 -261.49414062 414.3125 C-293.95259817 414.50220889 -327.02775345 407.36553936 -353 387 C-353.64710938 386.50757813 -354.29421875 386.01515625 -354.9609375 385.5078125 C-368.787714 374.43387838 -378.43939237 356.48455312 -381 339 C-383.61352688 301.26490509 -362.10025147 273.87990679 -341.20898438 244.47949219 C-320.39483037 215.14632106 -302.4287962 184.65210235 -288.3125 151.5 C-279.02556852 129.74835025 -266.59908159 109.55691559 -252 91 C-250.87851562 89.55753906 -250.87851562 89.55753906 -249.734375 88.0859375 C-240.28928484 76.22710207 -230.06235772 65.21406272 -218 56 C-217.04222656 55.21496094 -216.08445313 54.42992187 -215.09765625 53.62109375 C-183.00301009 27.75920359 -141.51500119 15.13621934 -100.47265625 19.5390625 C-77.86851416 22.33012273 -56.2219939 29.22153902 -36.59643555 40.85009766 C-32.58010483 43.32733756 -32.58010483 43.32733756 -28 44 C-27.19936896 42.33762104 -26.40999632 40.66981875 -25.625 39 C-24.96371094 37.6078125 -24.96371094 37.6078125 -24.2890625 36.1875 C-21.23078368 28.62521055 -20.73031028 22.06923429 -20.875 14 C-20.88853516 12.55173828 -20.88853516 12.55173828 -20.90234375 11.07421875 C-20.92569365 8.71587901 -20.95843953 6.35807714 -21 4 C-4.71428571 -1.42857143 -4.71428571 -1.42857143 0 0 Z " fill="#D38C13" transform="translate(406,58)"/>
<path d="M0 0 C6.92026584 2.44040979 13.35498423 5.85179823 19.76171875 9.39453125 C20.72722656 9.905 21.69273437 10.41546875 22.6875 10.94140625 C36.37426 18.80875867 47.34336584 31.60507751 54.76171875 45.39453125 C55.2402832 46.28325928 55.2402832 46.28325928 55.72851562 47.18994141 C67.24627081 69.11253985 69.99778422 92.57116707 69.77575302 117.02229118 C69.7533392 119.61240232 69.73951354 122.20243611 69.72805786 124.7926178 C69.69485231 132.14936727 69.65347566 139.50599077 69.59033203 146.86254883 C69.10491085 175.28537322 69.10491085 175.28537322 72.76171875 203.39453125 C72.90081665 204.08165192 73.03991455 204.76877258 73.18322754 205.47671509 C74.07944136 209.87436214 75.10999964 214.22756993 76.19921875 218.58203125 C76.48603516 219.78666016 76.77285156 220.99128906 77.06835938 222.23242188 C78.77887598 229.21544399 80.86212743 235.81261948 83.76171875 242.39453125 C58.1208099 241.78638149 31.5417697 228.78072039 10.01953125 215.64453125 C7.9002186 214.23307883 7.9002186 214.23307883 5.76171875 214.39453125 C5.76171875 213.40453125 5.76171875 212.41453125 5.76171875 211.39453125 C4.68277344 211.02328125 4.68277344 211.02328125 3.58203125 210.64453125 C-1.72970754 208.29029799 -5.86614901 204.15752528 -10.23828125 200.39453125 C-11.01171875 199.73396729 -11.01171875 199.73396729 -11.80078125 199.06005859 C-21.2538034 190.94522989 -21.2538034 190.94522989 -22.23828125 186.39453125 C-23.22828125 186.06453125 -24.21828125 185.73453125 -25.23828125 185.39453125 C-26.26841402 183.74631881 -27.26942753 182.07949423 -28.23828125 180.39453125 C-28.89828125 180.06453125 -29.55828125 179.73453125 -30.23828125 179.39453125 C-31.15274018 177.84698538 -32.05587317 176.29215937 -32.91796875 174.71484375 C-34.51013798 171.9167712 -36.25461701 169.23220588 -37.98828125 166.51953125 C-59.9994688 131.11786046 -66.96537016 85.71084893 -57.734375 45.18212891 C-54.14468955 30.1686019 -47.69971069 16.8819855 -37.23828125 5.39453125 C-36.60921875 4.60691406 -35.98015625 3.81929688 -35.33203125 3.0078125 C-26.37590297 -6.86115194 -11.48402201 -3.45374944 0 0 Z " fill="#5A7D09" transform="translate(416.23828125,107.60546875)"/>
<path d="M0 0 C2.87417836 12.7854858 2.53353841 28.65749591 -2 41 C-2.28875 42.216875 -2.5775 43.43375 -2.875 44.6875 C-5.68870901 47.74947745 -7.22695445 47.39776761 -11.3125 47.625 C-13.045 47.67333984 -13.045 47.67333984 -14.8125 47.72265625 C-19.03375946 48.08994721 -20.88428729 49.24036874 -24 52 C-25.65 50.35 -27.3 48.7 -29 47 C-27.13168762 42.27273518 -25.12832388 37.60713923 -23.12109375 32.9375 C-21.44967707 28.55803888 -20.87366878 24.59198841 -20.90234375 19.91796875 C-20.90556641 18.98662109 -20.90878906 18.05527344 -20.91210938 17.09570312 C-20.92048828 16.13599609 -20.92886719 15.17628906 -20.9375 14.1875 C-20.94201172 13.20845703 -20.94652344 12.22941406 -20.95117188 11.22070312 C-20.96291316 8.81373889 -20.97933581 6.40690143 -21 4 C-4.71428571 -1.42857143 -4.71428571 -1.42857143 0 0 Z " fill="#995817" transform="translate(406,58)"/>
</svg>
