<?xml version="1.0" encoding="UTF-8"?>
<svg version="1.1" xmlns="http://www.w3.org/2000/svg" width="500" height="500">
<path d="M0 0 C14.91239721 12.43141672 22.66260808 26.83093152 28.55126953 45.11035156 C31.02875364 52.75625281 33.67039159 59.6959819 38.05126953 66.48535156 C38.42155273 67.07010254 38.79183594 67.65485352 39.17333984 68.25732422 C47.4130451 81.22553389 54.95761025 92.10496197 70.05126953 97.48535156 C82.04583891 100.10388431 94.37414913 97.16117057 105.05126953 91.48535156 C109.78637996 87.81322511 112.51837248 83.35586696 113.34814453 77.32910156 C113.44869141 76.26175781 113.44869141 76.26175781 113.55126953 75.17285156 C113.71626953 73.95597656 113.88126953 72.73910156 114.05126953 71.48535156 C117.71992194 69.03958329 119.72327296 69.24927902 124.05126953 69.48535156 C124.71126953 69.81535156 125.37126953 70.14535156 126.05126953 70.48535156 C126.91963919 81.99124948 121.82152581 91.66191226 114.53173828 100.28222656 C110.05556513 105.03067302 104.80203968 108.76550361 99.52783203 112.56738281 C96.99009623 114.24659042 96.99009623 114.24659042 96.05126953 116.48535156 C97.20626953 116.5975 98.36126953 116.70964844 99.55126953 116.82519531 C103.94447184 117.38013629 107.89817687 118.54303669 112.05126953 120.04785156 C112.78112061 120.30961182 113.51097168 120.57137207 114.26293945 120.84106445 C122.17946374 123.77068105 129.62922374 127.48592802 137.05126953 131.48535156 C138.09927734 132.03964844 139.14728516 132.59394531 140.22705078 133.16503906 C153.42140856 140.46999476 164.27288592 150.25208084 174.67285156 161.05859375 C177.30110211 163.77901461 179.97371294 166.45680366 182.70996094 169.06860352 C187.01821335 173.2382036 190.58399299 177.61922714 193.98876953 182.54785156 C194.50600586 183.29389648 195.02324219 184.03994141 195.55615234 184.80859375 C220.09146044 220.61151689 226.68098453 262.42916441 219.37939453 304.88769531 C211.68621279 345.26506382 189.61503899 382.99330933 155.86376953 407.04785156 C143.90422948 415.0586204 131.6196945 421.65663009 118.05126953 426.48535156 C116.82279297 426.92621094 115.59431641 427.36707031 114.32861328 427.82128906 C99.63016988 432.85903159 83.58850241 436.01014364 68.05126953 436.48535156 C66.83439453 436.5253125 65.61751953 436.56527344 64.36376953 436.60644531 C48.17999793 436.9486176 31.79612343 435.71928805 16.01220703 432.07128906 C13.1887179 431.51255111 10.90757714 431.12770899 8.05126953 431.48535156 C6.27682098 432.80348152 6.27682098 432.80348152 4.73876953 434.73535156 C-21.80189569 462.81101794 -59.6489517 474.31263028 -97.19091797 475.70800781 C-130.0394885 476.4906222 -164.24360696 471.21804171 -191.94873047 452.48535156 C-193.02251953 451.76863281 -194.09630859 451.05191406 -195.20263672 450.31347656 C-224.33574672 430.43950751 -242.95378457 403.08135572 -249.56982422 368.21191406 C-251.75293311 346.74092563 -250.13610032 326.69437232 -239.94873047 307.48535156 C-239.20236328 306.0196875 -239.20236328 306.0196875 -238.44091797 304.52441406 C-235.42487471 298.76077119 -232.03676462 293.54465624 -227.94873047 288.48535156 C-212.02771858 293.92085441 -212.02771858 293.92085441 -204.57373047 297.29785156 C-187.63325948 304.65155601 -170.12122278 309.70538663 -152.06939697 313.39501953 C-137.35922225 316.4108362 -123.19220459 320.757435 -108.94873047 325.48535156 C-109.28646484 324.48117187 -109.62419922 323.47699219 -109.97216797 322.44238281 C-121.46631361 287.55189512 -117.05454436 252.49856162 -104.94873047 218.48535156 C-104.59810547 217.47988281 -104.24748047 216.47441406 -103.88623047 215.43847656 C-102.94019117 212.77379919 -101.95143966 210.12919901 -100.94873047 207.48535156 C-100.53236328 206.35097656 -100.11599609 205.21660156 -99.68701172 204.04785156 C-94.51632992 190.27995743 -87.73709952 177.54192171 -77.94873047 166.48535156 C-77.13919922 165.53273437 -76.32966797 164.58011719 -75.49560547 163.59863281 C-52.99102796 137.60507092 -20.47087018 123.27818141 12.42626953 115.67285156 C13.6892688 115.38051636 13.6892688 115.38051636 14.9777832 115.08227539 C27.87932346 112.26235488 40.48163473 111.17057811 53.64208984 111.27954102 C55.94526105 111.2980038 58.24803129 111.30004826 60.55126953 111.29980469 C72.72364208 111.33532128 72.72364208 111.33532128 78.25439453 112.26269531 C82.10220612 112.82857078 82.10220612 112.82857078 85.23095703 110.71972656 C86.56513672 109.48996094 86.56513672 109.48996094 87.92626953 108.23535156 C89.28365234 107.02105469 89.28365234 107.02105469 90.66845703 105.78222656 C92.4822973 104.03380349 94.27361125 102.27007679 96.05126953 100.48535156 C95.39239746 100.76685059 94.73352539 101.04834961 94.0546875 101.33837891 C84.69267086 104.93208822 76.04838646 105.08581948 66.17626953 105.11035156 C63.07448558 105.13229054 59.97310751 105.16630007 56.87158203 105.21191406 C56.11957016 105.2224733 55.36755829 105.23303253 54.59275818 105.24391174 C48.66875469 105.37177026 42.93334758 106.09514235 37.08056641 107.03125 C33.11422561 107.62581753 29.24440812 107.83083749 25.23876953 107.79785156 C24.49087158 107.79293701 23.74297363 107.78802246 22.97241211 107.78295898 C4.46312159 107.40434662 -12.84496282 102.60211764 -26.76123047 89.92285156 C-31.1478174 85.03494041 -34.88260396 80.37884281 -37.94873047 74.54785156 C-38.32118896 73.84184814 -38.69364746 73.13584473 -39.07739258 72.40844727 C-46.45272308 57.98633857 -52.47129336 42.65827912 -58.24169922 27.53222656 C-63.49803191 13.76083915 -69.6420061 2.45617116 -79.90576172 -8.33105469 C-82.05704929 -10.63042323 -84.00958027 -13.03515077 -85.94873047 -15.51464844 C-59.58720558 -27.19815481 -22.00555486 -17.10379133 0 0 Z " fill="#FD8B00" transform="translate(263.94873046875,23.5146484375)"/>
<path d="M0 0 C15.92101189 5.43550285 15.92101189 5.43550285 23.375 8.8125 C40.28242483 16.15185942 57.80199392 21.24271101 75.83108521 24.91067505 C86.04952742 26.99124171 95.88466478 29.69505833 105.8125 32.875 C117.01614371 36.43770466 127.24484038 38.37012467 139 38 C138.21238281 38.77859375 137.42476562 39.5571875 136.61328125 40.359375 C132.88457944 44.12709163 130.84506922 46.91454838 130.4375 52.25 C130.720897 59.67993008 135.6108489 64.78067516 140.765625 69.6875 C145.07479153 73.94963404 148.67123993 78.55711103 152.25 83.4375 C152.89114746 84.29988281 153.53229492 85.16226563 154.19287109 86.05078125 C157.34206464 90.30691204 160.43582368 94.59619505 163.4609375 98.94140625 C163.99686523 99.71105713 164.53279297 100.48070801 165.08496094 101.27368164 C166.08311618 102.71663941 167.07384893 104.1647713 168.05566406 105.61889648 C171.29250286 110.32464577 174.24212485 114.44842497 180.125 115.625 C192.50645912 113.62799047 203.58085711 103.64199893 211 94 C222.78036783 76.66285489 229.89492152 60.98093796 229 40 C232.63 39.67 236.26 39.34 240 39 C239.6126997 47.40041006 238.66040463 55.01878612 236 63 C235.77570313 63.67804688 235.55140625 64.35609375 235.3203125 65.0546875 C225.01200595 95.76706474 206.48586098 123.47752368 177.0078125 138.62890625 C171.73863372 141.23981285 166.39309799 143.65742589 161 146 C159.94425781 146.4643042 159.94425781 146.4643042 158.8671875 146.93798828 C134.206506 157.59194306 107.50414967 159.55153729 81 159 C79.28683594 158.99033203 79.28683594 158.99033203 77.5390625 158.98046875 C52.61484535 158.01635147 29.65036981 144.6603651 12 128 C10.8553125 126.96939453 10.8553125 126.96939453 9.6875 125.91796875 C-4.57673419 112.57001349 -12.22449286 95.04916409 -15 76 C-15.185625 74.84371094 -15.37125 73.68742187 -15.5625 72.49609375 C-18.49718752 49.04479614 -12.41547687 25.83095375 -2 5 C-1.31306851 3.34158288 -0.63785504 1.6779044 0 0 Z " fill="#F5E9B5" transform="translate(36,312)"/>
<path d="M0 0 C14.91239721 12.43141672 22.66260808 26.83093152 28.55126953 45.11035156 C31.02875364 52.75625281 33.67039159 59.6959819 38.05126953 66.48535156 C38.60669434 67.36247803 38.60669434 67.36247803 39.17333984 68.25732422 C47.4130451 81.22553389 54.95761025 92.10496197 70.05126953 97.48535156 C82.04583891 100.10388431 94.37414913 97.16117057 105.05126953 91.48535156 C109.78637996 87.81322511 112.51837248 83.35586696 113.34814453 77.32910156 C113.41517578 76.61753906 113.48220703 75.90597656 113.55126953 75.17285156 C113.71626953 73.95597656 113.88126953 72.73910156 114.05126953 71.48535156 C117.71992194 69.03958329 119.72327296 69.24927902 124.05126953 69.48535156 C124.71126953 69.81535156 125.37126953 70.14535156 126.05126953 70.48535156 C126.9186816 81.97856152 121.832442 91.62401266 114.56689453 100.24707031 C108.57078258 106.6142288 100.94657513 112.70521414 93.34814453 117.02050781 C87.13019031 120.98603984 84.25842154 128.74127599 82.05126953 135.48535156 C83.18564453 135.54722656 84.32001953 135.60910156 85.48876953 135.67285156 C90.69846601 136.28794989 94.66972939 138.73674652 99.05126953 141.48535156 C99.05126953 142.80535156 99.05126953 144.12535156 99.05126953 145.48535156 C94.03502605 148.49509765 90.74189737 148.86472675 85.05126953 148.48535156 C84.39126953 148.15535156 83.73126953 147.82535156 83.05126953 147.48535156 C82.72126953 150.12535156 82.39126953 152.76535156 82.05126953 155.48535156 C77.77860383 155.01061093 75.77746753 152.64200188 73.05126953 149.48535156 C72.3424172 147.83618492 71.66789556 146.17117319 71.05126953 144.48535156 C69.99939453 144.44667969 69.99939453 144.44667969 68.92626953 144.40722656 C62.29293126 144.0106683 57.78920828 142.84150442 52.05126953 139.48535156 C52.05126953 138.49535156 52.05126953 137.50535156 52.05126953 136.48535156 C59.26080182 133.17605805 65.19786363 130.8675496 73.05126953 133.48535156 C72.96876953 132.49535156 72.88626953 131.50535156 72.80126953 130.48535156 C72.82865522 123.69370133 76.80942884 118.18213556 81.20361328 113.28222656 C84.20008303 110.36811222 87.46959941 107.82611202 90.78173828 105.28222656 C92.69129159 103.77035991 94.35282962 102.22073399 96.05126953 100.48535156 C95.39239746 100.76685059 94.73352539 101.04834961 94.0546875 101.33837891 C84.69267086 104.93208822 76.04838646 105.08581948 66.17626953 105.11035156 C63.07448558 105.13229054 59.97310751 105.16630007 56.87158203 105.21191406 C56.11957016 105.2224733 55.36755829 105.23303253 54.59275818 105.24391174 C48.66875469 105.37177026 42.93334758 106.09514235 37.08056641 107.03125 C33.11422561 107.62581753 29.24440812 107.83083749 25.23876953 107.79785156 C24.49087158 107.79293701 23.74297363 107.78802246 22.97241211 107.78295898 C4.46312159 107.40434662 -12.84496282 102.60211764 -26.76123047 89.92285156 C-31.1478174 85.03494041 -34.88260396 80.37884281 -37.94873047 74.54785156 C-38.32118896 73.84184814 -38.69364746 73.13584473 -39.07739258 72.40844727 C-46.45272308 57.98633857 -52.47129336 42.65827912 -58.24169922 27.53222656 C-63.49803191 13.76083915 -69.6420061 2.45617116 -79.90576172 -8.33105469 C-82.05704929 -10.63042323 -84.00958027 -13.03515077 -85.94873047 -15.51464844 C-59.58720558 -27.19815481 -22.00555486 -17.10379133 0 0 Z " fill="#5A9A2A" transform="translate(263.94873046875,23.5146484375)"/>
<path d="M0 0 C3.21860266 1.39030996 5.0985741 2.95360897 7.3515625 5.625 C8.25890137 6.69814453 8.25890137 6.69814453 9.18457031 7.79296875 C9.78366211 8.52128906 10.38275391 9.24960938 11 10 C11.53979492 10.65613281 12.07958984 11.31226563 12.63574219 11.98828125 C38.98229874 44.59071577 50.19037752 83.61131657 46.71582031 125.41943359 C41.90887489 170.35084163 22.06318613 211.01188159 -13 240 C-26.44873817 250.26488425 -41.07618243 258.33304307 -57 264 C-58.84271484 264.66128906 -58.84271484 264.66128906 -60.72265625 265.3359375 C-75.42109965 270.37368003 -91.46276712 273.52479208 -107 274 C-108.216875 274.03996094 -109.43375 274.07992188 -110.6875 274.12109375 C-129.33594482 274.51537644 -147.92789604 272.61696087 -166 268 C-164.32590026 264.30265673 -162.03632169 261.10085037 -159.6875 257.8125 C-157.00820869 254.05057484 -154.5761962 250.32402913 -152.35083008 246.27612305 C-151.68704094 245.07163765 -151.68704094 245.07163765 -151.00984192 243.84281921 C-150.50997017 242.9306237 -150.50997017 242.9306237 -150 242 C-148.74566162 242.01571045 -147.49132324 242.0314209 -146.19897461 242.04760742 C-141.47443248 242.10256024 -136.74991761 242.13658396 -132.02514648 242.16479492 C-129.99352239 242.17973452 -127.96192969 242.20009363 -125.93041992 242.22631836 C-113.85012676 242.3781781 -102.73686569 242.00331241 -91 239 C-89.74646729 238.7100415 -88.49293457 238.42008301 -87.20141602 238.12133789 C-48.54726301 229.0627534 -16.3194171 202.732711 4.65039062 169.59326172 C14.7292714 153.19028894 21.74317687 136.74754262 26.3125 118.0625 C26.47218262 117.4132959 26.63186523 116.7640918 26.79638672 116.09521484 C31.40545432 95.91208237 31.00896563 72.06051294 26 52 C25.75056641 50.99138916 25.75056641 50.99138916 25.49609375 49.96240234 C21.4782847 34.38595187 14.04506644 18.77104701 3.796875 6.32421875 C2 4 2 4 2 2 C1.34 2 0.68 2 0 2 C0 1.34 0 0.68 0 0 Z " fill="#F27B05" transform="translate(439,186)"/>
<path d="M0 0 C2.62924683 1.95315479 4.32030502 4.20807456 6 7 C6.3815625 7.59296875 6.763125 8.1859375 7.15625 8.796875 C9.32829549 14.46832711 7.70504709 19.48878641 5.4765625 24.85546875 C2.69905208 31.83876965 0.41397134 38.91056276 -1.7265625 46.11328125 C-2.04477966 47.18319305 -2.36299683 48.25310486 -2.69085693 49.35543823 C-3.67313652 52.6732269 -4.64969976 55.99265354 -5.625 59.3125 C-6.61097402 62.65904884 -7.59871052 66.00504645 -8.59042358 69.34989929 C-9.20171471 71.41250784 -9.80973677 73.47608946 -10.41372681 75.54084778 C-11.84472872 80.37758496 -13.34356464 85.18954005 -14.96630859 89.96557617 C-15.40672989 91.27240608 -15.40672989 91.27240608 -15.85604858 92.6056366 C-17.17527749 95.36686699 -18.68718645 97.01371603 -21 99 C-34.69284172 102.54709805 -54.36708031 92.59206307 -65.94970703 85.86816406 C-82.206839 75.75665182 -92.601755 61.36221217 -98 43 C-98.50913965 36.6192239 -98.50913965 36.6192239 -95.6875 33.1875 C-91.72830659 29.96490071 -88.99339723 28.69518306 -84.0625 27.625 C-76.0380848 25.69827993 -68.65122616 22.3896233 -61.125 19.0625 C-52.77822868 15.37484531 -44.6067096 11.98707899 -35.77514648 9.66918945 C-29.30902406 7.93533497 -23.35867641 5.25359133 -17.29296875 2.453125 C-11.70223526 -0.01396024 -6.09179978 -1.19145611 0 0 Z " fill="#FEBF1F" transform="translate(131,360)"/>
<path d="M0 0 C9.50193175 3.00502788 18.55118517 19.35738757 24.640625 27.33984375 C29.0970302 33.17879806 33.64698975 38.94416318 38.2109375 44.69921875 C38.6332666 45.23417969 39.0555957 45.76914062 39.49072266 46.3203125 C40.68287495 47.82658448 41.88422363 49.32556397 43.0859375 50.82421875 C43.76398438 51.67242187 44.44203125 52.520625 45.140625 53.39453125 C47.18461206 55.80341581 47.18461206 55.80341581 49.89453125 57.8046875 C52.2109375 59.69921875 52.2109375 59.69921875 53.3984375 62.88671875 C53.05142084 69.94272408 48.45993082 74.76584416 43.4609375 79.44921875 C39.09991039 83.04456934 34.371042 85.44844619 29.2109375 87.69921875 C28.58832031 87.98539062 27.96570313 88.2715625 27.32421875 88.56640625 C12.08587253 94.97907256 -5.90186864 95.68231293 -22.1015625 93.94921875 C-23.1061853 93.8567688 -23.1061853 93.8567688 -24.13110352 93.76245117 C-29.91679272 93.06799539 -33.71457983 90.77370142 -37.7890625 86.69921875 C-38.51542527 80.31501071 -36.51003016 75.07946674 -34.39453125 69.11328125 C-33.67899803 67.02605484 -32.96350455 64.93881481 -32.24804688 62.8515625 C-31.11940147 59.60143433 -29.98655669 56.35281137 -28.85131836 53.10498047 C-24.8017313 41.47498644 -21.05445721 30.23999867 -19.37719727 18.01000977 C-18.55316311 13.37126871 -16.93247824 10.15868444 -13.7890625 6.69921875 C-13.2734375 6.10496094 -12.7578125 5.51070313 -12.2265625 4.8984375 C-8.41903191 1.06446572 -5.35797422 0.0290143 0 0 Z " fill="#FEBF1F" transform="translate(156.7890625,368.30078125)"/>
<path d="M0 0 C0.79148438 0.00966797 1.58296875 0.01933594 2.3984375 0.02929688 C6.56019791 0.10649082 10.66653999 0.3757564 14.80566406 0.80981445 C21.54771558 1.43424281 28.2719153 1.52040401 35.0390625 1.59375 C37.04582054 1.62186882 39.05257853 1.64999298 41.05933189 1.67844391 C45.25075635 1.73656007 49.44227525 1.78736703 53.63378906 1.83856201 C57.11815972 1.88128997 60.60248214 1.92580178 64.08676147 1.97546387 C66.68975037 2.01220466 69.29280443 2.04462261 71.89590454 2.0723877 C73.64440201 2.09746399 73.64440201 2.09746399 75.42822266 2.12304688 C76.45871735 2.13557495 77.48921204 2.14810303 78.55093384 2.16101074 C80.875 2.3125 80.875 2.3125 81.875 3.3125 C84.3145959 24.10451052 74.16618202 42.6712768 61.875 58.75 C54.47495965 67.56862516 44.48691295 77.15320403 32.625 78.75 C27.09240874 78.10453102 23.9330647 74.8680271 20.49023438 70.59301758 C19.19461543 68.75679707 17.96495383 66.89050396 16.75 65 C8.89402233 53.20359878 0.46670996 41.86157979 -9.18359375 31.46484375 C-14.59993899 25.46000224 -18.51194397 20.85982382 -18.40625 12.62890625 C-17.85002895 8.04780788 -15.13802241 5.36176991 -12.05078125 2.1640625 C-7.9707175 -0.41798051 -4.72282891 -0.16813869 0 0 Z " fill="#FEBF1F" transform="translate(184.125,349.6875)"/>
<path d="M0 0 C2.97039059 1.04112619 5.87802631 2.18072514 8.79052734 3.37402344 C20.98989341 8.06452813 33.24008817 11.38426603 45.97802734 14.24902344 C46.8892334 14.45398438 47.80043945 14.65894531 48.73925781 14.87011719 C52.03190074 15.60649485 55.32425424 16.34245437 58.62426758 17.04516602 C63.7772566 18.14863806 63.7772566 18.14863806 65.97802734 19.24902344 C65.97802734 19.90902344 65.97802734 20.56902344 65.97802734 21.24902344 C67.46302734 21.74402344 67.46302734 21.74402344 68.97802734 22.24902344 C69.04052734 25.49902344 69.04052734 25.49902344 67.97802734 29.24902344 C65.25443907 31.24060614 62.14569123 32.15096021 58.97802734 33.24902344 C58.10533203 33.61382812 57.23263672 33.97863281 56.33349609 34.35449219 C49.3202696 37.25554572 42.21718541 39.34037997 34.91552734 41.37402344 C25.59280006 43.98745823 16.64522763 47.19588428 7.66552734 50.81152344 C-0.43716469 54.07156494 -8.5149176 57.26811243 -16.83447266 59.93652344 C-17.57415283 60.18023682 -18.31383301 60.4239502 -19.07592773 60.67504883 C-23.4914314 62.04409732 -27.41170051 62.82176327 -32.02197266 62.24902344 C-33.93994141 60.71386719 -33.93994141 60.71386719 -35.02197266 58.24902344 C-35.29477964 55.67055744 -35.40124344 53.38052165 -35.33447266 50.81152344 C-35.31864136 49.75070557 -35.31864136 49.75070557 -35.30249023 48.66845703 C-34.8699265 31.24455509 -30.52730365 13.1116496 -18.02197266 0.24902344 C-12.88362732 -2.32014923 -5.40517595 -1.34321548 0 0 Z " fill="#FEBE1F" transform="translate(65.02197265625,322.7509765625)"/>
<path d="M0 0 C2.62924683 1.95315479 4.32030502 4.20807456 6 7 C6.3815625 7.59296875 6.763125 8.1859375 7.15625 8.796875 C9.32829549 14.46832711 7.70504709 19.48878641 5.4765625 24.85546875 C2.69905208 31.83876965 0.41397134 38.91056276 -1.7265625 46.11328125 C-2.04477966 47.18319305 -2.36299683 48.25310486 -2.69085693 49.35543823 C-3.67313652 52.6732269 -4.64969976 55.99265354 -5.625 59.3125 C-6.61097402 62.65904884 -7.59871052 66.00504645 -8.59042358 69.34989929 C-9.20171471 71.41250784 -9.80973677 73.47608946 -10.41372681 75.54084778 C-11.84472872 80.37758496 -13.34356464 85.18954005 -14.96630859 89.96557617 C-15.40672989 91.27240608 -15.40672989 91.27240608 -15.85604858 92.6056366 C-17.17527749 95.36686699 -18.68718645 97.01371603 -21 99 C-34.69284172 102.54709805 -54.36708031 92.59206307 -65.94970703 85.86816406 C-82.206839 75.75665182 -92.601755 61.36221217 -98 43 C-98.50913965 36.6192239 -98.50913965 36.6192239 -95.6875 33.1875 C-91.72830659 29.96490071 -88.99339723 28.69518306 -84.0625 27.625 C-76.0380848 25.69827993 -68.65122616 22.3896233 -61.125 19.0625 C-52.77822868 15.37484531 -44.6067096 11.98707899 -35.77514648 9.66918945 C-29.30902406 7.93533497 -23.35867641 5.25359133 -17.29296875 2.453125 C-11.70223526 -0.01396024 -6.09179978 -1.19145611 0 0 Z M-40.625 17.3125 C-47.77065022 20.67154635 -54.90557208 24.01494855 -62.21606445 27.00390625 C-69.38354195 29.94368154 -77.35680888 33.71361776 -81 41 C-81.7975929 48.03450785 -80.85232382 53.1000446 -77 59 C-76.56042969 59.71929687 -76.12085938 60.43859375 -75.66796875 61.1796875 C-70.59426048 68.60399985 -63.58238126 72.52501015 -56 77 C-55.18015625 77.55300781 -54.3603125 78.10601562 -53.515625 78.67578125 C-47.61073603 82.50102867 -41.92767842 83.2888704 -35 82 C-19.39576517 75.31632083 -11.19639517 51.78520791 -4.95654297 37.20996094 C-4.04774301 35.11030366 -3.1103175 33.02652022 -2.16015625 30.9453125 C-1.60668448 29.71358047 -1.05329412 28.48181184 -0.5 27.25 C-0.0153125 26.18265625 0.469375 25.1153125 0.96875 24.015625 C2.08488223 20.75178377 2.36611162 18.42338135 2 15 C-0.42815889 11.58745237 -2.51521145 9.32319237 -6 7 C-8.40039332 6.60564868 -8.40039332 6.60564868 -11.0625 6.625 C-11.94035156 6.59664063 -12.81820312 6.56828125 -13.72265625 6.5390625 C-23.1361267 7.86300709 -32.11713501 13.30978286 -40.625 17.3125 Z " fill="#FDA521" transform="translate(131,360)"/>
<path d="M0 0 C9.50193175 3.00502788 18.55118517 19.35738757 24.640625 27.33984375 C29.0970302 33.17879806 33.64698975 38.94416318 38.2109375 44.69921875 C38.6332666 45.23417969 39.0555957 45.76914062 39.49072266 46.3203125 C40.68287495 47.82658448 41.88422363 49.32556397 43.0859375 50.82421875 C43.76398438 51.67242187 44.44203125 52.520625 45.140625 53.39453125 C47.18461206 55.80341581 47.18461206 55.80341581 49.89453125 57.8046875 C52.2109375 59.69921875 52.2109375 59.69921875 53.3984375 62.88671875 C53.05142084 69.94272408 48.45993082 74.76584416 43.4609375 79.44921875 C39.09991039 83.04456934 34.371042 85.44844619 29.2109375 87.69921875 C28.58832031 87.98539062 27.96570313 88.2715625 27.32421875 88.56640625 C12.08587253 94.97907256 -5.90186864 95.68231293 -22.1015625 93.94921875 C-23.1061853 93.8567688 -23.1061853 93.8567688 -24.13110352 93.76245117 C-29.91679272 93.06799539 -33.71457983 90.77370142 -37.7890625 86.69921875 C-38.51542527 80.31501071 -36.51003016 75.07946674 -34.39453125 69.11328125 C-33.67899803 67.02605484 -32.96350455 64.93881481 -32.24804688 62.8515625 C-31.11940147 59.60143433 -29.98655669 56.35281137 -28.85131836 53.10498047 C-24.8017313 41.47498644 -21.05445721 30.23999867 -19.37719727 18.01000977 C-18.55316311 13.37126871 -16.93247824 10.15868444 -13.7890625 6.69921875 C-13.2734375 6.10496094 -12.7578125 5.51070313 -12.2265625 4.8984375 C-8.41903191 1.06446572 -5.35797422 0.0290143 0 0 Z M-12.7890625 11.69921875 C-15.96483209 18.90907403 -17.569649 26.53614361 -19.2890625 34.19921875 C-19.51917526 35.21568481 -19.51917526 35.21568481 -19.75393677 36.25268555 C-25.02532326 58.76870261 -25.02532326 58.76870261 -25.7890625 81.69921875 C-24.2514031 83.74323548 -23.35318259 84.58787926 -20.82226562 85.08740234 C-19.70754883 85.09247803 -19.70754883 85.09247803 -18.5703125 85.09765625 C-17.73008545 85.10394043 -16.8898584 85.11022461 -16.02416992 85.11669922 C-15.12158447 85.10268066 -14.21899902 85.08866211 -13.2890625 85.07421875 C-12.35360596 85.06406738 -11.41814941 85.05391602 -10.4543457 85.04345703 C7.39535938 84.65519096 28.20253359 81.8967802 42.2109375 69.69921875 C44.64522237 66.04779144 44.83972035 65.02210086 44.2109375 60.69921875 C40.16011809 52.07633478 33.77105711 44.83578952 27.60546875 37.671875 C22.29186373 31.49678321 17.28619901 25.24653189 12.64697266 18.54394531 C8.27843446 11.72154052 8.27843446 11.72154052 2.2109375 6.69921875 C-4.34232791 5.78176159 -8.25468916 6.51707779 -12.7890625 11.69921875 Z " fill="#FDA622" transform="translate(156.7890625,368.30078125)"/>
<path d="M0 0 C0.8353125 0.37125 0.8353125 0.37125 1.6875 0.75 C1.048125 1.36875 0.40875 1.9875 -0.25 2.625 C-3.02855878 5.48775753 -3.27456924 6.31000316 -3.625 10.375 C-3.50027997 16.14330136 -1.51693433 20.47430163 2.5 24.62109375 C3.20125 25.28238281 3.9025 25.94367188 4.625 26.625 C9.06719945 30.84144833 12.49396128 35.44967752 16 40.4375 C20.21497255 46.41839749 24.54180354 52.19900481 29.3125 57.75 C29.80919189 58.33096436 30.30588379 58.91192871 30.81762695 59.51049805 C34.78705237 64.09933339 34.78705237 64.09933339 40.3125 66.25 C49.73946005 64.85341333 57.39172403 56.07280474 62.90625 48.83984375 C74.01194476 34.19302635 74.01194476 34.19302635 78.78515625 17.30078125 C78.78193359 16.45322266 78.77871094 15.60566406 78.77539062 14.73242188 C78.76701172 13.85134766 78.75863281 12.97027344 78.75 12.0625 C78.74548828 11.16982422 78.74097656 10.27714844 78.73632812 9.35742188 C78.72454983 7.15488013 78.70810164 4.95247401 78.6875 2.75 C80.16581221 2.55587819 81.64519316 2.36987869 83.125 2.1875 C83.94871094 2.08308594 84.77242188 1.97867187 85.62109375 1.87109375 C86.64396484 1.81115234 86.64396484 1.81115234 87.6875 1.75 C89.99369454 4.05619454 89.17811847 8.67617178 89.20874023 11.77319336 C88.72137618 31.18547337 75.82081094 51.47499238 62.5390625 64.92578125 C56.04886831 70.97190952 48.43576611 76.97619495 39.4375 78.1875 C33.90490874 77.54203102 30.7455647 74.3055271 27.30273438 70.03051758 C26.00711543 68.19429707 24.77745383 66.32800396 23.5625 64.4375 C15.70652233 52.64109878 7.27920996 41.29907979 -2.37109375 30.90234375 C-7.78743899 24.89750224 -11.69944397 20.29732382 -11.59375 12.06640625 C-11.01417751 7.29298284 -8.12294993 4.54018868 -4.8125 1.3125 C-2.3125 -0.25 -2.3125 -0.25 0 0 Z " fill="#FDA521" transform="translate(177.3125,350.25)"/>
<path d="M0 0 C1.13050781 -0.01417969 2.26101562 -0.02835937 3.42578125 -0.04296875 C6.61954843 0.18269863 8.8151429 0.82407346 11.6875 2.1875 C8.6875 3.1875 8.6875 3.1875 5.9375 2.9375 C1.45225189 3.28251909 -1.21548116 5.09048116 -4.3125 8.1875 C-10.98311369 16.94064675 -16.41520594 29.06251905 -16.5 40.1875 C-16.52126953 41.4559375 -16.52126953 41.4559375 -16.54296875 42.75 C-16.29793096 45.34158616 -15.61834901 46.95774992 -14.3125 49.1875 C-0.90316013 50.00477354 10.09938598 45.76819408 22.23681641 40.67382812 C34.02244881 35.74152386 45.56177146 31.44592383 58.25390625 29.66796875 C61.96959837 28.93437303 63.93538419 27.7908528 66.6875 25.1875 C67.0175 23.5375 67.3475 21.8875 67.6875 20.1875 C62.4075 18.8675 57.1275 17.5475 51.6875 16.1875 C55.39983474 15.25941631 56.46551966 15.12570047 59.9453125 15.9296875 C60.73550781 16.10886719 61.52570313 16.28804688 62.33984375 16.47265625 C63.56380859 16.76462891 63.56380859 16.76462891 64.8125 17.0625 C65.63621094 17.24941406 66.45992188 17.43632812 67.30859375 17.62890625 C73.36607143 19.02678571 73.36607143 19.02678571 75.6875 20.1875 C75.6875 20.8475 75.6875 21.5075 75.6875 22.1875 C77.1725 22.6825 77.1725 22.6825 78.6875 23.1875 C78.75 26.4375 78.75 26.4375 77.6875 30.1875 C74.96391173 32.17908271 71.85516389 33.08943677 68.6875 34.1875 C67.81480469 34.55230469 66.94210938 34.91710937 66.04296875 35.29296875 C59.02974225 38.19402228 51.92665806 40.27885653 44.625 42.3125 C35.30227272 44.92593479 26.35470029 48.13436084 17.375 51.75 C9.27230797 55.0100415 1.19455506 58.20658899 -7.125 60.875 C-7.86468018 61.11871338 -8.60436035 61.36242676 -9.36645508 61.61352539 C-13.78195874 62.98257388 -17.70222786 63.76023984 -22.3125 63.1875 C-24.23046875 61.65234375 -24.23046875 61.65234375 -25.3125 59.1875 C-25.58530698 56.609034 -25.69177078 54.31899821 -25.625 51.75 C-25.6091687 50.68918213 -25.6091687 50.68918213 -25.59301758 49.60693359 C-25.16045385 32.18303165 -20.81783099 14.05012616 -8.3125 1.1875 C-5.50752177 -0.21498912 -3.12748635 0.01770944 0 0 Z " fill="#FDA521" transform="translate(55.3125,321.8125)"/>
<path d="M0 0 C1.09155597 3.27466791 0.89650939 4.24486449 0.125 7.5 C-7.62951573 40.26555942 0.00180514 75.67395979 14.71484375 105.26171875 C16 108 16 108 16 110 C9.4 110 2.8 110 -4 110 C-18.21000266 81.57999469 -14.74740073 43.3835075 -5.26611328 14.08813477 C-1.62347561 3.24695122 -1.62347561 3.24695122 0 0 Z " fill="#F27B06" transform="translate(160,240)"/>
<path d="M0 0 C8.15191372 -0.22781776 8.15191372 -0.22781776 11.16015625 1.46875 C12.83984375 3.16015625 12.83984375 3.16015625 13.33984375 6.47265625 C12.74701283 10.84478425 11.56707249 12.71523574 8.83984375 16.16015625 C8.45054687 16.72734375 8.06125 17.29453125 7.66015625 17.87890625 C3.02251875 24.13560063 -4.05881317 27.76346132 -11.5 29.80078125 C-15.22470686 30.30397219 -18.90467022 30.4638085 -22.66015625 30.53515625 C-23.77970703 30.59123047 -23.77970703 30.59123047 -24.921875 30.6484375 C-29.14214741 30.71566308 -30.70836496 30.50674388 -34.1796875 27.84375 C-36.16015625 25.16015625 -36.16015625 25.16015625 -36.34765625 21.84765625 C-33.98319356 14.50537737 -28.5960813 8.38043497 -22.16015625 4.16015625 C-15.08859203 0.78269274 -7.7041397 0.39044466 0 0 Z " fill="#FEA94B" transform="translate(267.16015625,160.83984375)"/>
<path d="M0 0 C2.75569447 2.18159145 4.43588747 3.87177494 6 7 C6.38482057 11.07909806 6.44121857 13.29089873 4.25 16.8125 C1.15014512 19.8262478 -0.62892007 20.85414043 -4.9375 21.3125 C-8.43355571 20.95575962 -10.20520785 20.09609412 -13 18 C-15.6790573 13.98141405 -15.69610694 10.72358279 -15 6 C-11.16503735 -0.13594024 -6.93506384 -1.10194451 0 0 Z " fill="#FEA94B" transform="translate(221,197)"/>
<path d="M0 0 C3.1833676 2.70586246 5.48340311 6.12243066 7 10 C6.70588235 15.29411765 6.70588235 15.29411765 5 17 C3.33382885 17.04063832 1.66611905 17.042721 0 17 C-1.69242399 14.04497399 -2.27328801 11.90004978 -2.25 8.5 C-2.25515625 7.7471875 -2.2603125 6.994375 -2.265625 6.21875 C-1.97250404 3.7703279 -1.21816769 2.12695946 0 0 Z " fill="#FECA57" transform="translate(147,431)"/>
<path d="M0 0 C3.18783048 2.70965591 5.47193255 6.12232346 7 10 C6.85698792 13.78982006 6.69173926 15.30826074 4 18 C2 18 2 18 0 17 C-2.06380658 12.66600618 -2.35196296 8.7514999 -2 4 C-1 1.5625 -1 1.5625 0 0 Z " fill="#FEA61F" transform="translate(171,398)"/>
<path d="M0 0 C10.97592998 -0.63019694 10.97592998 -0.63019694 15.25 2 C15.8275 2.66 16.405 3.32 17 4 C16.125 7.875 16.125 7.875 15 9 C8.67624711 8.87094382 4.50824957 6.41457165 0 2 C0 1.34 0 0.68 0 0 Z " fill="#FEA61F" transform="translate(229,359)"/>
<path d="M0 0 C3.1833676 2.70586246 5.48340311 6.12243066 7 10 C6.70588235 15.29411765 6.70588235 15.29411765 5 17 C3.33382885 17.04063832 1.66611905 17.042721 0 17 C-2.03097258 11.79563275 -3.18914012 6.89852904 -1 1.5625 C-0.67 1.046875 -0.34 0.53125 0 0 Z " fill="#FECB58" transform="translate(154,382)"/>
<path d="M0 0 C3.12472238 2.82712977 5.75601659 5.73566273 6.22265625 10.06640625 C6.24743927 12.0455077 6.13165819 14.02512713 6 16 C5 17 5 17 2.4375 17.0625 C1.633125 17.041875 0.82875 17.02125 0 17 C-1.69242399 14.04497399 -2.27328801 11.90004978 -2.25 8.5 C-2.25515625 7.7471875 -2.2603125 6.994375 -2.265625 6.21875 C-1.97250404 3.7703279 -1.21816769 2.12695946 0 0 Z " fill="#FECB58" transform="translate(182,421)"/>
<path d="M0 0 C-1.56818272 5.452999 -3.03810217 9.76486783 -7 14 C-9.97 13.505 -9.97 13.505 -13 13 C-13.2421875 10.734375 -13.2421875 10.734375 -13 8 C-11.3203125 6.015625 -11.3203125 6.015625 -9.125 4.25 C-8.04605469 3.36054688 -8.04605469 3.36054688 -6.9453125 2.453125 C-4.30244881 0.47893767 -3.37201381 0 0 0 Z " fill="#FECB59" transform="translate(74,398)"/>
<path d="M0 0 C1.68407396 0.72565788 3.33754139 1.52151262 4.984375 2.328125 C2.60654143 5.08140598 0.47239339 6.29757411 -3.015625 7.328125 C-6.703125 7.578125 -6.703125 7.578125 -10.015625 7.328125 C-10.675625 6.668125 -11.335625 6.008125 -12.015625 5.328125 C-11.765625 2.765625 -11.765625 2.765625 -11.015625 0.328125 C-7.50499876 -1.42718812 -3.69622358 -1.23207453 0 0 Z " fill="#FECB59" transform="translate(74.015625,346.671875)"/>
<path d="M0 0 C0.66 0.33 1.32 0.66 2 1 C1.15301468 2.99131654 0.27131898 4.96789649 -0.625 6.9375 C-1.11226562 8.03964844 -1.59953125 9.14179688 -2.1015625 10.27734375 C-4 13 -4 13 -7.0859375 14.00390625 C-10 14 -10 14 -12 12 C-11.89463195 8.94432642 -10.81249887 7.78035582 -8.8125 5.4375 C-5.97637846 2.979528 -3.4787539 1.39150156 0 0 Z " fill="#FEA51F" transform="translate(97,422)"/>
<path d="M0 0 C4.48174587 0.02572021 7.46098469 0.81746401 11.3125 3.25 C8.44083984 6.12166016 5.21724029 7.24841234 1.3125 8.25 C-2.48101936 8.03924892 -3.9940124 7.9434876 -6.6875 5.25 C-5.94798276 0.36918624 -4.73219695 0.08488246 0 0 Z " fill="#FEA51F" transform="translate(97.6875,342.75)"/>
<path d="M0 0 C4.20785521 5.41009956 6.67180879 8.87882687 6 16 C5.34 16.66 4.68 17.32 4 18 C2 17.9375 2 17.9375 0 17 C-2.53949269 12.80983706 -2.30129307 8.74536589 -2 4 C-1 1.5 -1 1.5 0 0 Z " fill="#FEA51F" transform="translate(146,406)"/>
<path d="M0 0 C-0.73916176 5.02629997 -2.36892762 9.36892762 -6 13 C-9.625 12.625 -9.625 12.625 -13 12 C-12.50862141 7.75360892 -11.42727645 5.9464191 -8.1875 3.1875 C-7.15689453 2.28064453 -7.15689453 2.28064453 -6.10546875 1.35546875 C-4 0 -4 0 0 0 Z " fill="#FECB59" transform="translate(90,405)"/>
<path d="M0 0 C4.88837146 1.39667756 9.34428895 3.34428895 13 7 C12.71269945 9.33944736 12.38063221 11.6739143 12 14 C8.08974009 13.42070224 5.83943664 11.6938245 3 9 C1.06277405 5.72675616 0 3.8148669 0 0 Z " fill="#FECB59" transform="translate(192,373)"/>
<path d="M0 0 C4.48174587 0.02572021 7.46098469 0.81746401 11.3125 3.25 C6.77730694 6.27346204 1.91490528 9.18373421 -3.6875 8.25 C-5.5625 7 -5.5625 7 -6.6875 5.25 C-6.1113626 0.35283208 -4.62989996 0.08304753 0 0 Z " fill="#FEA51F" transform="translate(65.6875,331.75)"/>
<path d="M0 0 C4.66797043 5.60156452 6.42162586 8.5512765 6 16 C5 17 5 17 2.4375 17.0625 C1.633125 17.041875 0.82875 17.02125 0 17 C-1.69242399 14.04497399 -2.27328801 11.90004978 -2.25 8.5 C-2.25515625 7.7471875 -2.2603125 6.994375 -2.265625 6.21875 C-1.97250404 3.7703279 -1.21816769 2.12695946 0 0 Z " fill="#FEA51F" transform="translate(162,419)"/>
<path d="M0 0 C-1.31122439 4.23626342 -2.61201467 8.24745162 -5 12 C-8.0625 13.4375 -8.0625 13.4375 -11 14 C-11.66 13.67 -12.32 13.34 -13 13 C-13.2421875 10.734375 -13.2421875 10.734375 -13 8 C-11.3203125 6.015625 -11.3203125 6.015625 -9.125 4.25 C-8.04605469 3.36054688 -8.04605469 3.36054688 -6.9453125 2.453125 C-4.30244881 0.47893767 -3.37201381 0 0 0 Z " fill="#FEA51F" transform="translate(121,376)"/>
<path d="M0 0 C-0.73916176 5.02629997 -2.36892762 9.36892762 -6 13 C-8.625 13.125 -8.625 13.125 -11 13 C-11.66 11.68 -12.32 10.36 -13 9 C-12.0919838 7.86800647 -11.17316174 6.74467637 -10.25 5.625 C-9.73953125 4.99851562 -9.2290625 4.37203125 -8.703125 3.7265625 C-5.94627513 0.93177433 -3.92714883 0 0 0 Z " fill="#FEA51F" transform="translate(99,380)"/>
<path d="M0 0 C1.29550781 0.11794922 1.29550781 0.11794922 2.6171875 0.23828125 C5.12636979 0.68774537 6.92182469 1.43220244 9.125 2.6875 C7.75355402 5.43039197 5.78618934 5.96919035 3.03515625 7.08203125 C0.28912225 7.95245102 -2.02537325 8.01132122 -4.875 7.6875 C-5.865 7.0275 -6.855 6.3675 -7.875 5.6875 C-7.5 3.25 -7.5 3.25 -6.875 0.6875 C-4.320304 -0.589848 -2.82820227 -0.28114177 0 0 Z " fill="#FEA51F" transform="translate(50.875,359.3125)"/>
<path d="M0 0 C-0.78668518 1.62741744 -1.5795241 3.25186131 -2.375 4.875 C-2.81585938 5.77992188 -3.25671875 6.68484375 -3.7109375 7.6171875 C-5 10 -5 10 -7 12 C-10.125 11.625 -10.125 11.625 -13 11 C-12.86210108 8.03517326 -12.71055664 5.78765516 -10.66796875 3.5234375 C-4.728804 -1.4186412 -4.728804 -1.4186412 0 0 Z " fill="#FEA51F" transform="translate(114,402)"/>
<path d="M0 0 C1.91635217 -0.05423638 3.83314925 -0.09289963 5.75 -0.125 C7.35101563 -0.15980469 7.35101563 -0.15980469 8.984375 -0.1953125 C11.95187244 -0.00311707 13.57455878 0.31645845 16 2 C16.8125 4.5625 16.8125 4.5625 17 7 C16 8 16 8 12.8125 8.3125 C8.33162082 7.94521482 6.44816261 6.82122396 3 4 C1.97411266 2.6864807 0.96873032 1.35622245 0 0 Z " fill="#FEA51F" transform="translate(207,394)"/>
<path d="M0 0 C2.10353495 -0.0810206 4.20795952 -0.13919907 6.3125 -0.1875 C7.48425781 -0.22230469 8.65601563 -0.25710938 9.86328125 -0.29296875 C13 0 13 0 14.9375 1.34375 C16 3 16 3 15.6875 5.6875 C15.460625 6.450625 15.23375 7.21375 15 8 C9.76392104 8.65450987 6.90953174 7.09690299 2.63671875 4.38671875 C1 3 1 3 0 0 Z " fill="#FFCB5A" transform="translate(223,381)"/>
<path d="M0 0 C2.10353495 -0.0810206 4.20795952 -0.13919907 6.3125 -0.1875 C7.48425781 -0.22230469 8.65601563 -0.25710938 9.86328125 -0.29296875 C13 0 13 0 14.9375 1.34375 C16 3 16 3 15.6875 5.6875 C15.460625 6.450625 15.23375 7.21375 15 8 C9.76392104 8.65450987 6.90953174 7.09690299 2.63671875 4.38671875 C1 3 1 3 0 0 Z " fill="#FEA41F" transform="translate(185,355)"/>
<path d="M0 0 C2.29141286 -0.05384521 4.58318188 -0.09272087 6.875 -0.125 C8.78925781 -0.15980469 8.78925781 -0.15980469 10.7421875 -0.1953125 C14 0 14 0 16 2 C16.125 4.625 16.125 4.625 16 7 C12.54916429 8.15027857 10.96969726 7.99043071 7.4375 6.875 C3.88319012 4.93628552 2.38753366 3.18686112 0 0 Z " fill="#FEA41F" transform="translate(208,366)"/>
</svg>
